<?xml version="1.0" encoding="UTF-8"?>
<svg version="1.1" xmlns="http://www.w3.org/2000/svg" width="192" height="192">
<path d="M0 0 C18.36836087 15.82673594 29.55275501 37.57136827 32.91015625 61.46875 C33.18833272 65.22429618 33.24477811 68.95386631 33.22265625 72.71875 C33.21528442 74.22199829 33.21528442 74.22199829 33.20776367 75.75561523 C32.83557427 99.50129933 23.86527102 122.68018842 6.91015625 139.46875 C6.06453125 140.355625 5.21890625 141.2425 4.34765625 142.15625 C3.54328125 142.919375 2.73890625 143.6825 1.91015625 144.46875 C1.41 144.97535156 0.90984375 145.48195312 0.39453125 146.00390625 C-10.63437546 156.52931939 -28.9995823 166.39524514 -44.43676758 166.66162109 C-45.28898392 166.67768402 -46.14120026 166.69374695 -47.01924133 166.71029663 C-50.94404919 166.75535856 -54.86869362 166.79588895 -58.79370117 166.81884766 C-60.84655179 166.83529239 -62.89934795 166.86242737 -64.9519043 166.90087891 C-77.6824414 167.13767822 -88.33538256 166.66569572 -100.08984375 161.46875 C-101.34293335 160.93531982 -101.34293335 160.93531982 -102.62133789 160.39111328 C-104.70383872 159.44934392 -106.70744139 158.43542803 -108.71484375 157.34375 C-109.77058594 156.77515259 -109.77058594 156.77515259 -110.84765625 156.19506836 C-132.35230339 144.15957574 -147.1799276 123.88184923 -154.08984375 100.46875 C-161.32486426 74.10477376 -157.26903651 47.26474232 -144.46875 23.453125 C-139.98739019 15.93045866 -134.19941059 9.67418736 -128.08984375 3.46875 C-127.38214844 2.7365625 -126.67445312 2.004375 -125.9453125 1.25 C-116.19360779 -8.14743628 -102.88226263 -14.4940386 -90.08984375 -18.53125 C-89.11015625 -18.84964844 -88.13046875 -19.16804688 -87.12109375 -19.49609375 C-56.85187295 -27.62532755 -23.92316344 -19.59824262 0 0 Z " fill="#FAFAFA" transform="translate(158.08984375,25.53125)"/>
<path d="M0 0 C1.59062256 0.01027222 1.59062256 0.01027222 3.21337891 0.02075195 C11.23248167 0.18487126 17.86317789 1.15446795 25.25 4.4375 C26.11109375 4.788125 26.9721875 5.13875 27.859375 5.5 C43.36285673 12.43323407 54.11437939 25.84442596 60.25 41.4375 C65.12927186 57.93754077 63.61972388 76.49608143 55.53515625 91.65234375 C53.88086811 94.3491592 52.13691009 96.89962792 50.25 99.4375 C49.486875 100.489375 48.72375 101.54125 47.9375 102.625 C35.66787821 115.46530187 20.91419735 122.30129555 3.22192383 122.84033203 C-14.29914372 123.0491087 -29.00564967 118.2068307 -42.13671875 106.18359375 C-53.9184824 93.43190283 -60.36682052 78.54791581 -60.25 61.1875 C-60.24427979 60.18750977 -60.23855957 59.18751953 -60.23266602 58.15722656 C-59.91446479 44.8506298 -55.59756786 34.18885176 -47.75 23.4375 C-47.028125 22.40625 -46.30625 21.375 -45.5625 20.3125 C-39.04498728 12.91598063 -29.8392621 7.11616738 -20.75 3.4375 C-20.12625488 3.17928467 -19.50250977 2.92106934 -18.85986328 2.6550293 C-12.55023041 0.26892066 -6.70422084 -0.06633114 0 0 Z " fill="#080808" transform="translate(94.75,34.5625)"/>
<path d="M0 0 C6.04699779 4.7721643 10.04346148 10.56980424 11.28515625 18.26171875 C11.63243136 26.19303421 9.20447118 32.53227714 5.21875 39.27734375 C-1.28143143 45.43541037 -7.42281073 47.84017836 -16.15625 49.02734375 C-24.65164254 50.21516266 -31.5791317 51.85865121 -37.05078125 59 C-41.75308411 66.47743242 -43.27260252 73.04133558 -41.765625 81.796875 C-39.85286743 88.79805817 -35.36610311 94.73554642 -29.30078125 98.7578125 C-27.54679113 99.68288282 -27.54679113 99.68288282 -25.15625 100.52734375 C-30.07169365 102.37800239 -33.94648724 100.18277227 -38.5703125 98.296875 C-49.17676583 93.06297156 -56.97487561 85.62562865 -63.15625 75.52734375 C-63.57390625 74.8621875 -63.9915625 74.19703125 -64.421875 73.51171875 C-71.39998524 61.11776175 -71.6592936 46.2110127 -68.1875 32.7578125 C-63.39793728 17.75414443 -53.98181721 6.99177093 -40.15625 -0.47265625 C-26.59420809 -6.08285344 -12.69861468 -8.67278575 0 0 Z " fill="#FBFBFB" transform="translate(112.15625,47.47265625)"/>
<path d="M0 0 C18.36836087 15.82673594 29.55275501 37.57136827 32.91015625 61.46875 C33.18833272 65.22429618 33.24477811 68.95386631 33.22265625 72.71875 C33.21528442 74.22199829 33.21528442 74.22199829 33.20776367 75.75561523 C32.83557427 99.50129933 23.86527102 122.68018842 6.91015625 139.46875 C6.06453125 140.355625 5.21890625 141.2425 4.34765625 142.15625 C3.54328125 142.919375 2.73890625 143.6825 1.91015625 144.46875 C1.41 144.97535156 0.90984375 145.48195312 0.39453125 146.00390625 C-10.63437546 156.52931939 -28.9995823 166.39524514 -44.43676758 166.66162109 C-45.28898392 166.67768402 -46.14120026 166.69374695 -47.01924133 166.71029663 C-50.94404919 166.75535856 -54.86869362 166.79588895 -58.79370117 166.81884766 C-60.84655179 166.83529239 -62.89934795 166.86242737 -64.9519043 166.90087891 C-77.6824414 167.13767822 -88.33538256 166.66569572 -100.08984375 161.46875 C-101.34293335 160.93531982 -101.34293335 160.93531982 -102.62133789 160.39111328 C-104.70383872 159.44934392 -106.70744139 158.43542803 -108.71484375 157.34375 C-109.77058594 156.77515259 -109.77058594 156.77515259 -110.84765625 156.19506836 C-132.35230339 144.15957574 -147.1799276 123.88184923 -154.08984375 100.46875 C-161.32486426 74.10477376 -157.26903651 47.26474232 -144.46875 23.453125 C-139.98739019 15.93045866 -134.19941059 9.67418736 -128.08984375 3.46875 C-127.38214844 2.7365625 -126.67445312 2.004375 -125.9453125 1.25 C-116.19360779 -8.14743628 -102.88226263 -14.4940386 -90.08984375 -18.53125 C-89.11015625 -18.84964844 -88.13046875 -19.16804688 -87.12109375 -19.49609375 C-56.85187295 -27.62532755 -23.92316344 -19.59824262 0 0 Z M-124.08984375 6.46875 C-124.08984375 7.12875 -124.08984375 7.78875 -124.08984375 8.46875 C-124.6621875 8.69304688 -125.23453125 8.91734375 -125.82421875 9.1484375 C-137.72959647 16.086399 -144.80211257 36.18375892 -148.3984375 48.6015625 C-153.65268441 70.39036043 -150.6984407 95.93307833 -139.02050781 115.23632812 C-135.13614138 121.29049036 -130.88622692 127.1057392 -126.08984375 132.46875 C-125.42984375 132.46875 -124.76984375 132.46875 -124.08984375 132.46875 C-123.75984375 133.45875 -123.42984375 134.44875 -123.08984375 135.46875 C-103.37944259 153.69035239 -79.35803226 159.45237024 -53.09228516 158.64794922 C-29.65634309 157.2491867 -9.08703887 144.54970268 6.29394531 127.3984375 C13.89713401 118.32055178 19.47491459 107.77991158 22.91015625 96.46875 C23.22726563 95.46585937 23.544375 94.46296875 23.87109375 93.4296875 C29.95598276 70.4857482 26.00569623 46.15477457 14.91015625 25.46875 C12.50584612 21.54987445 9.85274786 17.99772762 6.91015625 14.46875 C6.13671875 13.53289063 5.36328125 12.59703125 4.56640625 11.6328125 C-9.76517999 -4.92107667 -30.99697955 -16.15518772 -52.98950195 -17.74023438 C-78.81178186 -18.55840049 -105.6801349 -13.52345531 -124.08984375 6.46875 Z " fill="#010101" transform="translate(158.08984375,25.53125)"/>
<path d="M0 0 C3.22980084 2.886205 4.77566051 4.77859609 5.5625 9.0625 C4.83443034 12.86464154 3.92327345 14.44213573 1 17 C-1.73051732 17.98047803 -4.11229022 18.27501998 -7 18 C-10.06790679 16.49868391 -11.50948528 15.38498273 -12.6640625 12.125 C-13.42043055 8.20968301 -13.33151312 6.53727989 -11.1875 3.0625 C-7.53892032 -0.37758941 -4.98519534 -0.59146385 0 0 Z " fill="#F6F6F6" transform="translate(100,114)"/>
<path d="M0 0 C3.25050495 2.76292921 3.9070372 4.33764005 4.5 8.5625 C4 12 4 12 2.5 14.375 C-0.90600922 16.58890599 -3.93643817 17.36281802 -8 17 C-10.85993478 15.23535939 -12.49782849 14.00434303 -14 11 C-14.43023798 7.12785818 -14.31669086 5.47503629 -12.125 2.1875 C-8.38878525 -1.65860342 -4.99059408 -1.42024812 0 0 Z " fill="#121212" transform="translate(101,61)"/>
</svg>
