<?xml version="1.0" encoding="UTF-8"?>
<svg version="1.1" xmlns="http://www.w3.org/2000/svg" width="1080" height="1080">
<path d="M0 0 C1.1152002 0.36194458 1.1152002 0.36194458 2.25292969 0.73120117 C4.09943849 1.34207798 5.92592134 2.0125909 7.75 2.6875 C9.53664063 3.34298828 9.53664063 3.34298828 11.359375 4.01171875 C12.23078125 4.33785156 13.1021875 4.66398437 14 5 C14 5.66 14 6.32 14 7 C14.83917969 7.12955078 14.83917969 7.12955078 15.6953125 7.26171875 C23.46667503 8.62358132 30.64256972 11.22241105 38 14 C38 14.66 38 15.32 38 16 C38.57105469 16.08636719 39.14210938 16.17273438 39.73046875 16.26171875 C47.23309969 17.5618567 53.95859076 20.16831156 61 23 C63.66113624 24.01492115 66.33019837 25.0081321 69 26 C84.61759911 31.81941951 84.61759911 31.81941951 90.125 34.0625 C95.19642961 36.11848498 100.34692815 37.93627377 105.5078125 39.75390625 C107.98720437 40.63861096 110.4522129 41.54192761 112.9140625 42.47265625 C116.30417835 43.75076983 119.71454678 44.95743723 123.13793945 46.14306641 C129.92489216 48.49508169 136.57045082 51.02199394 143.17578125 53.8515625 C147.05434048 55.42873596 151.01742289 56.68270948 155 57.96875 C159.08479878 59.37289958 163.01826976 61.08035845 166.98828125 62.77734375 C170.99980786 64.40588828 175.09295038 65.7089633 179.2109375 67.0390625 C181.66637712 67.8850543 183.96323446 68.83765658 186.3125 69.9375 C190.2174092 71.74847238 194.22232165 73.1150807 198.3125 74.4375 C204.02742486 76.28556756 209.54143445 78.42487182 215.05859375 80.796875 C219.94875657 82.79710096 224.96640054 84.40245691 230 86 C230 86.66 230 87.32 230 88 C230.80824219 88.10699219 231.61648438 88.21398437 232.44921875 88.32421875 C236.71783311 89.1366173 240.70337489 90.41881424 244.8125 91.8125 C246.02160034 92.21843384 246.02160034 92.21843384 247.25512695 92.63256836 C251.85325718 94.19883122 256.2789465 95.91760574 260.66796875 98.00390625 C264.51596541 99.64752291 268.51503907 100.8577996 272.49291992 102.14477539 C276.65383434 103.50667167 280.5722658 105.09370492 284.52734375 106.953125 C290.20001285 109.35482377 296.13935135 111.11594431 302 113 C302 113.66 302 114.32 302 115 C302.80824219 115.10699219 303.61648438 115.21398437 304.44921875 115.32421875 C308.71780788 116.1366125 312.70343326 117.41868881 316.8125 118.8125 C317.6178418 119.08312256 318.42318359 119.35374512 319.25292969 119.63256836 C323.85745732 121.20212387 328.31341237 122.90013584 332.70703125 124.99609375 C337.04562009 126.8956122 341.57514493 128.33289699 346.05859375 129.8515625 C349 131 349 131 351 133 C351.24954766 135.04524928 351.24954766 135.04524928 351.24888897 137.62276936 C351.25578716 139.093243 351.25578716 139.093243 351.26282471 140.59342319 C351.25510937 142.22074187 351.25510937 142.22074187 351.24723816 143.88093567 C351.24965257 145.02755651 351.25206699 146.17417735 351.25455457 147.35554427 C351.25923109 150.54858533 351.25488228 153.74147063 351.24679029 156.93450034 C351.24022894 160.37525767 351.24515877 163.81600054 351.24867249 167.25675964 C351.25372494 174.00666928 351.24805728 180.75653007 351.23882218 187.50643364 C351.22843852 195.37984659 351.22850848 203.25324896 351.22899476 211.12666746 C351.22949605 225.19619029 351.22032178 239.26569044 351.20581055 253.33520508 C351.19177292 266.95272231 351.18463758 280.57021957 351.18530273 294.18774414 C351.18534269 295.02365197 351.18538265 295.8595598 351.18542381 296.72079817 C351.18546417 297.55532331 351.18550452 298.38984844 351.1855461 299.24966222 C351.18623932 314.77772281 351.18031997 330.30577499 351.17139288 345.83383283 C351.16839478 351.30427458 351.16731544 356.77471476 351.16686058 362.24515724 C351.16617233 368.93935093 351.16162517 375.63353047 351.15252777 382.32771818 C351.14796479 385.73481614 351.14538566 389.14188133 351.14612198 392.54898453 C351.14865219 411.40280456 351.09510729 430.29441885 348.94921875 449.05078125 C348.85049973 449.95571823 348.7517807 450.86065521 348.65007019 451.79301453 C348.3370794 454.63379052 348.01340603 457.47317905 347.6875 460.3125 C347.5770636 461.29114014 347.4666272 462.26978027 347.35284424 463.27807617 C345.33606898 481.10304022 343.21095798 498.96014837 338.890625 516.40234375 C338.15644086 519.36806127 337.46777221 522.33607442 336.796875 525.31640625 C332.41919375 544.49999208 327.13894741 563.64170908 320 582 C319.39989248 583.5920152 318.80101334 585.18449379 318.203125 586.77734375 C312.02930713 603.11989563 305.62053815 619.27250637 298 635 C297.52626953 635.98033203 297.52626953 635.98033203 297.04296875 636.98046875 C292.39527567 646.5536055 287.35298694 655.80410998 282 665 C281.30788291 666.22151791 280.61779985 667.44419039 279.9296875 668.66796875 C276.66114352 674.47381286 273.32344336 680.17152861 269.5546875 685.671875 C267.662963 688.50470867 265.89678012 691.40319568 264.125 694.3125 C258.52197466 703.46268777 252.59135694 712.34146534 246.22265625 720.9765625 C244.50422863 723.31410728 242.80722325 725.66274553 241.12109375 728.0234375 C240.12244146 729.41149116 239.12374383 730.79951221 238.125 732.1875 C237.64828857 732.86014893 237.17157715 733.53279785 236.68041992 734.22583008 C235.50247745 735.85372078 234.2567924 737.43218322 233 739 C232.34 739 231.68 739 231 739 C230.58234375 739.87978516 230.58234375 739.87978516 230.15625 740.77734375 C226.49495657 747.81543822 220.76943353 753.5634605 215.4375 759.34765625 C213.44338734 761.51753204 211.48999177 763.70883764 209.5625 765.9375 C193.33244347 784.58479899 193.33244347 784.58479899 188 789 C187.34 789 186.68 789 186 789 C185.79632812 789.54011719 185.59265625 790.08023438 185.3828125 790.63671875 C183.4420118 793.95362391 180.71071947 796.27752655 177.875 798.8125 C177.28750977 799.34512451 176.70001953 799.87774902 176.09472656 800.42651367 C174.40204367 801.95733434 172.70204465 803.47960478 171 805 C170.23429688 805.6909375 169.46859375 806.381875 168.6796875 807.09375 C165.48920038 809.93547942 162.22049709 812.63738008 158.83984375 815.25 C155.68489238 817.69365442 152.53537298 820.14370074 149.39453125 822.60546875 C147.8671875 823.79947917 146.33984375 824.99348958 144.8125 826.1875 C144.04486328 826.79013672 143.27722656 827.39277344 142.48632812 828.01367188 C136.75685928 832.48629066 130.83375137 836.49603247 124.6875 840.375 C121.35210023 842.48533337 118.06135717 844.63440885 114.8125 846.875 C109.40149311 850.51142936 103.68845409 853.60539485 97.9921875 856.765625 C94.55830474 858.67424392 91.18224603 860.66744005 87.8125 862.6875 C78.40269489 868.19877587 68.33909001 872.32660225 58.3125 876.5703125 C55.46479215 877.79939396 52.67251334 879.09993894 49.875 880.4375 C35.63579265 886.9249409 20.44059721 891.15880104 5.42578125 895.421875 C1.19009349 896.62593406 -2.96757009 897.97557307 -7.11157227 899.46411133 C-13.03670186 901.14551527 -19.65987962 897.95550067 -25.296875 896.16015625 C-27.84498948 895.36185456 -30.38476307 894.59571193 -32.953125 893.87109375 C-46.28624662 890.10084284 -59.28635287 885.51910263 -72 880 C-73.49512745 879.37528648 -74.99129068 878.7530482 -76.48828125 878.1328125 C-84.80466479 874.6766975 -93.01427293 871.17589803 -101 867 C-102.26521108 866.37286217 -103.53088511 865.74665792 -104.796875 865.12109375 C-108.7851977 863.13040292 -112.68336102 861.00723085 -116.5625 858.8125 C-117.58742554 858.23375122 -117.58742554 858.23375122 -118.63305664 857.64331055 C-131.09446002 850.57139612 -143.43211596 843.31957832 -154.84375 834.625 C-157.327406 832.75325925 -159.8500865 830.94066814 -162.375 829.125 C-166.86464419 825.86768573 -171.2262347 822.48815814 -175.53515625 818.99609375 C-177.17962121 817.66436381 -178.83336035 816.34400586 -180.49609375 815.03515625 C-192.76219942 805.37153166 -192.76219942 805.37153166 -198 800 C-198 799.34 -198 798.68 -198 798 C-198.70125 797.814375 -199.4025 797.62875 -200.125 797.4375 C-203.50046451 795.74976775 -204.99455986 793.8264928 -207.328125 790.93359375 C-209.69154577 788.20019823 -212.39100204 785.94894071 -215.1328125 783.60546875 C-220.02416654 779.39972291 -224.23273439 774.56185317 -228.5234375 769.76171875 C-231.90012183 765.99623638 -235.31941095 762.27014297 -238.73828125 758.54296875 C-245 751.50259067 -245 751.50259067 -245 749 C-245.99 748.67 -246.98 748.34 -248 748 C-249.38707388 746.03688924 -250.71213643 744.02957759 -252 742 C-253.5664846 739.92467432 -255.15065838 737.86261148 -256.75 735.8125 C-271.80291458 716.39916236 -285.33714122 696.0328431 -298 675 C-298.78503906 673.70835937 -298.78503906 673.70835937 -299.5859375 672.390625 C-301.34537114 669.41611288 -303.02603868 666.40533826 -304.6875 663.375 C-305.31011719 662.24835937 -305.93273437 661.12171875 -306.57421875 659.9609375 C-308 657 -308 657 -308 654 C-308.66 654 -309.32 654 -310 654 C-310.49628906 652.93523438 -310.99257813 651.87046875 -311.50390625 650.7734375 C-314.77970215 643.76698686 -318.07808326 636.78048045 -321.5625 629.875 C-335 603.15374714 -335 603.15374714 -335 596 C-335.66 596 -336.32 596 -337 596 C-337.98678898 593.14827038 -338.96456818 590.29395658 -339.9375 587.4375 C-340.21529297 586.63763672 -340.49308594 585.83777344 -340.77929688 585.01367188 C-342.3684451 580.32281264 -343.47747981 575.92756382 -344 571 C-344.66 571 -345.32 571 -346 571 C-346.2266333 570.16863525 -346.4532666 569.33727051 -346.68676758 568.48071289 C-347.54023373 565.35467283 -348.39596834 562.22926461 -349.25317383 559.10424805 C-349.62157707 557.75943952 -349.98911218 556.41439282 -350.35571289 555.0690918 C-352.7260057 546.23123305 -352.7260057 546.23123305 -355.5703125 537.5390625 C-357.82054706 531.00288578 -358.82264118 524.09730498 -360.0625 517.3125 C-360.44675662 515.22290813 -360.83295834 513.13374657 -361.22422791 511.04545593 C-361.57736374 509.15917409 -361.92377544 507.27163701 -362.26977539 505.3840332 C-362.91711721 502.04564607 -362.91711721 502.04564607 -364.01147461 499.10913086 C-365.26562215 495.16455962 -365.74447707 491.30463791 -366.21875 487.203125 C-366.32161316 486.34838089 -366.42447632 485.49363678 -366.53045654 484.61299133 C-366.86185262 481.82622161 -367.18183971 479.03830984 -367.5 476.25 C-367.61049683 475.3003537 -367.72099365 474.3507074 -367.83483887 473.37228394 C-369.53431045 458.68771981 -370.7625256 444.02640448 -371.45507812 429.26074219 C-371.51630859 427.95911133 -371.57753906 426.65748047 -371.640625 425.31640625 C-371.68735352 424.18662354 -371.73408203 423.05684082 -371.78222656 421.89282227 C-371.89852471 419.14407401 -371.89852471 419.14407401 -372.50522202 417.12469298 C-373.0644333 414.72330824 -373.12905411 412.57776273 -373.13422108 410.11209011 C-373.13867892 409.12365846 -373.14313676 408.13522681 -373.14772969 407.11684269 C-373.14754533 406.03329299 -373.14736097 404.9497433 -373.14717102 403.83335876 C-373.15084771 402.680496 -373.1545244 401.52763323 -373.1583125 400.33983523 C-373.16742978 397.13941421 -373.17204689 393.93902332 -373.17470181 390.73859155 C-373.17860891 387.28730307 -373.18818659 383.83602939 -373.19691467 380.38475037 C-373.21666197 372.05263431 -373.2267406 363.72051707 -373.23564246 355.38838348 C-373.24002599 351.4662484 -373.24539243 347.54411468 -373.25063133 343.62198067 C-373.26763771 330.58872603 -373.28213447 317.55547224 -373.28938007 304.52220821 C-373.29128999 301.14135169 -373.29321033 297.76049517 -373.29516602 294.37963867 C-373.29564976 293.53933424 -373.2961335 292.69902982 -373.2966319 291.83326162 C-373.30494211 278.20406293 -373.33029833 264.57495173 -373.36274669 250.9457913 C-373.39577471 236.95948492 -373.41382475 222.9732231 -373.41702431 208.9868775 C-373.41919278 201.13125622 -373.42799095 193.27576272 -373.45348549 185.42017937 C-373.47513398 178.73426706 -373.48327174 172.0485136 -373.47351871 165.36257022 C-373.4689576 161.94947246 -373.4709643 158.53670286 -373.49028015 155.1236496 C-373.50782159 151.42870371 -373.50098023 147.73460214 -373.48774719 144.03965759 C-373.49871644 142.95387718 -373.50968568 141.86809676 -373.52098733 140.74941391 C-373.51240644 139.76359001 -373.50382555 138.7777661 -373.49498463 137.76206875 C-373.49596144 136.90872714 -373.49693824 136.05538552 -373.49794465 135.17618507 C-373 133 -373 133 -371.0917899 131.25411326 C-369.05740801 130.03441844 -367.24818912 129.23799325 -364.98828125 128.53515625 C-364.23522705 128.29466553 -363.48217285 128.0541748 -362.70629883 127.80639648 C-361.91634521 127.56091064 -361.1263916 127.3154248 -360.3125 127.0625 C-353.19615117 124.80683121 -353.19615117 124.80683121 -346.3125 121.9375 C-342.35621961 120.06596616 -338.26867456 118.64299248 -334.125 117.25 C-333.46927002 117.02691162 -332.81354004 116.80382324 -332.13793945 116.57397461 C-329.29574404 115.63543378 -327.01476507 115 -324 115 C-324 114.34 -324 113.68 -324 113 C-323.29915283 112.7733667 -322.59830566 112.5467334 -321.8762207 112.31323242 C-318.68620325 111.27769759 -315.49936215 110.23270292 -312.3125 109.1875 C-311.20970703 108.83107422 -310.10691406 108.47464844 -308.97070312 108.10742188 C-307.3706543 107.58051758 -307.3706543 107.58051758 -305.73828125 107.04296875 C-304.26935425 106.56380005 -304.26935425 106.56380005 -302.77075195 106.07495117 C-299.9471701 104.97950392 -297.57896821 103.57565655 -295 102 C-292.9387207 101.17211914 -292.9387207 101.17211914 -290.92578125 100.53515625 C-290.18078369 100.29458496 -289.43578613 100.05401367 -288.66821289 99.80615234 C-287.50213501 99.43804443 -287.50213501 99.43804443 -286.3125 99.0625 C-280.55940796 97.19834389 -274.9019252 95.25244055 -269.30859375 92.9453125 C-266.59659982 91.83481753 -263.86823263 90.78096522 -261.125 89.75 C-260.24070312 89.41484375 -259.35640625 89.0796875 -258.4453125 88.734375 C-256 88 -256 88 -252 88 C-252 87.34 -252 86.68 -252 86 C-251.33991943 85.7733667 -250.67983887 85.5467334 -249.99975586 85.31323242 C-246.97806229 84.27403685 -243.95777796 83.23080231 -240.9375 82.1875 C-239.89916016 81.83107422 -238.86082031 81.47464844 -237.79101562 81.10742188 C-231.46798065 78.93165866 -231.46798065 78.93165866 -225.2734375 76.421875 C-221.46937405 74.76951331 -217.6068458 73.41146354 -213.6875 72.0625 C-208.18353883 70.14576239 -202.74193238 68.14525669 -197.34375 65.9453125 C-194.61645649 64.84530412 -191.87736604 63.7857588 -189.125 62.75 C-188.24070312 62.41484375 -187.35640625 62.0796875 -186.4453125 61.734375 C-184 61 -184 61 -180 61 C-180 60.34 -180 59.68 -180 59 C-178.14761719 58.36384766 -178.14761719 58.36384766 -176.2578125 57.71484375 C-166.79346332 54.44400683 -157.41290778 51.03899033 -148.10351562 47.34985352 C-143.56805467 45.56683266 -139.03996003 44.0490385 -134.34375 42.73828125 C-130.47792805 41.52054734 -126.8041135 39.85367318 -123.08203125 38.2578125 C-120.02395576 37.00977662 -116.95510243 35.95175796 -113.8125 34.9375 C-110.32893627 33.81231792 -107.00223927 32.61434423 -103.6875 31.0625 C-99.09388624 28.92885426 -94.32499945 27.41386821 -89.51513672 25.85791016 C-85.28551755 24.47357442 -81.28840025 22.85958678 -77.26171875 20.98046875 C-65.77290837 16 -65.77290837 16 -60 16 C-60 15.34 -60 14.68 -60 14 C-57.12682985 13.01517124 -54.25167255 12.0370007 -51.375 11.0625 C-50.56675781 10.78470703 -49.75851562 10.50691406 -48.92578125 10.22070312 C-44.62749354 8.77046784 -40.52125812 7.57796018 -36 7 C-36 6.34 -36 5.68 -36 5 C-32.26869602 3.55029516 -28.51356658 2.17601437 -24.75 0.8125 C-23.18378906 0.20245117 -23.18378906 0.20245117 -21.5859375 -0.41992188 C-13.43022056 -3.31469795 -8.08421569 -2.89376522 0 0 Z M-18.9375 75.25 C-19.62191162 75.47816406 -20.30632324 75.70632812 -21.01147461 75.94140625 C-25.54503382 77.46948835 -29.98709514 79.14359334 -34.41015625 80.96875 C-38.6635877 82.66242406 -42.9906054 84.14766415 -47.3125 85.65625 C-50.11826202 86.6786887 -52.88108622 87.74504429 -55.6484375 88.86328125 C-61.59598831 91.26047402 -67.60700605 93.47436646 -73.625 95.6875 C-82.65422286 99.0195729 -91.67723176 102.3669867 -100.6875 105.75 C-101.68249512 106.12326416 -102.67749023 106.49652832 -103.70263672 106.88110352 C-107.91997915 108.46410632 -112.13614552 110.04997999 -116.34765625 111.6484375 C-124.48916265 114.73197809 -132.66898784 117.66689163 -140.91308594 120.46533203 C-145.69269189 122.10886959 -150.27741753 123.98316535 -154.87670898 126.07617188 C-157.95569048 127.41581382 -161.11249864 128.42678919 -164.3125 129.4375 C-170.04544581 131.28514242 -175.57264842 133.43884892 -181.10546875 135.81640625 C-185.00649662 137.41156339 -188.99131537 138.67427892 -193 139.96875 C-196.06499901 141.02234341 -199.01985203 142.22722847 -202 143.5 C-206.93041122 145.60569646 -211.90429206 147.324141 -217.00390625 148.96875 C-220.05069264 150.01744831 -222.97895974 151.22483416 -225.9375 152.5 C-230.15427259 154.30718825 -234.34875198 155.76801529 -238.75 157.0625 C-243.05201107 158.33377987 -246.78720229 159.80716366 -250.71484375 161.93359375 C-254.49297139 163.69671998 -258.47990261 164.87113822 -262.44311523 166.14428711 C-265.87719956 167.25851743 -269.17904223 168.4459663 -272.4375 170 C-277.1152574 172.2012976 -282.0248171 173.63641489 -286.97827148 175.07421875 C-290.69854716 176.17940719 -294.21359059 177.48644543 -297.75390625 179.08398438 C-298.55256104 179.44310913 -299.35121582 179.80223389 -300.17407227 180.17224121 C-301.07790649 180.58198181 -301.07790649 180.58198181 -302 181 C-302.04577142 211.31046715 -302.0810944 241.62093068 -302.10213066 271.93142456 C-302.10463163 275.52191005 -302.10722032 279.11239547 -302.10986328 282.70288086 C-302.1103879 283.41758588 -302.11091252 284.1322909 -302.11145304 284.86865365 C-302.12012055 296.39264284 -302.13587004 307.91661178 -302.15430559 319.44058902 C-302.17310696 331.29339889 -302.18413819 343.14619826 -302.18817699 354.99902242 C-302.19065853 361.64469506 -302.19680634 368.29033099 -302.21146011 374.93599129 C-302.22517884 381.20926946 -302.2291942 387.4824837 -302.22621536 393.75577545 C-302.22675921 396.04078712 -302.23065056 398.32580124 -302.23841095 400.61079979 C-302.2753668 412.06801165 -302.05046896 423.4350245 -301.11080933 434.85838318 C-300.99442271 436.32356293 -300.99442271 436.32356293 -300.87568486 437.81834227 C-300.79290284 438.7182517 -300.71012081 439.61816113 -300.62483025 440.54534054 C-300.55295994 441.33577784 -300.48108963 442.12621515 -300.40704143 442.9406051 C-300.0775551 445.29840885 -300.0775551 445.29840885 -298 448 C-295.83185251 448.45031919 -295.83185251 448.45031919 -293.27171898 448.36914349 C-291.76567038 448.37810241 -291.76567038 448.37810241 -290.22919655 448.38724232 C-288.56335549 448.37413533 -288.56335549 448.37413533 -286.86386108 448.36076355 C-285.69301468 448.3633316 -284.52216827 448.36589966 -283.31584167 448.36854553 C-280.0493328 448.37266101 -276.78317667 448.36320031 -273.51670954 448.34821819 C-269.94644656 448.33516029 -266.37619806 448.33949923 -262.80591774 448.34167194 C-255.86875515 448.34326993 -248.93170862 448.32938887 -241.9945759 448.31016796 C-233.97399278 448.28860827 -225.95347984 448.28618594 -217.93286133 448.28381348 C-196.74688909 448.2680482 -175.56094282 448.22616506 -154.375 448.1875 C-107.06125 448.125625 -59.7475 448.06375 -11 448 C-11 324.25 -11 200.5 -11 73 C-13.62121455 73 -16.44445706 74.41808404 -18.9375 75.25 Z M-9 450 C-9 574.08 -9 698.16 -9 826 C3.55275681 822.8618108 16.20099578 818.38193199 27.60546875 812.25390625 C30.97028002 810.49190883 34.41469442 809.24106732 38 808 C38 807.34 38 806.68 38 806 C38.81791016 805.76216797 38.81791016 805.76216797 39.65234375 805.51953125 C44.56508113 803.99952191 48.8759924 802.11940994 53.31640625 799.5390625 C56.85671702 797.50866593 60.45774691 795.60049324 64.0625 793.6875 C64.7426416 793.32567627 65.4227832 792.96385254 66.12353516 792.59106445 C67.7486275 791.72663155 69.37425651 790.86320767 71 790 C71 789.34 71 788.68 71 788 C71.7425 787.72414063 72.485 787.44828125 73.25 787.1640625 C75.77706533 786.09436723 77.76084494 784.9406592 80 783.375 C84.86574811 780.03592118 89.90567878 777.02671869 94.984375 774.02734375 C98.06700516 771.95495379 100.42222034 769.66037294 103 767 C104.093125 766.278125 105.18625 765.55625 106.3125 764.8125 C107.199375 764.214375 108.08625 763.61625 109 763 C109 762.34 109 761.68 109 761 C109.515625 760.773125 110.03125 760.54625 110.5625 760.3125 C116.6930725 757.10577598 116.6930725 757.10577598 121 752 C121.99 751.67 122.98 751.34 124 751 C125.71108689 749.37897032 127.37253306 747.70496537 129 746 C132.41135543 742.57401734 135.84256171 739.16813694 139.2734375 735.76171875 C140.78913247 734.2534077 142.30434063 732.7446095 143.81933594 731.2355957 C144.8519611 730.2079943 145.88548268 729.18129286 146.91992188 728.15551758 C152.83873608 722.28477017 158.58368938 716.34374853 164 710 C165.55889044 708.28837223 167.12082104 706.57950171 168.6875 704.875 C171.82077694 701.40413093 174.46075757 697.93173021 177 694 C179.10443456 691.36843523 181.238149 688.76427311 183.390625 686.171875 C185.19845526 684.1827101 185.19845526 684.1827101 185 682 C185.66 682 186.32 682 187 682 C188.82505013 679.59439414 188.82505013 679.59439414 190.625 676.625 C191.25664063 675.62726563 191.88828125 674.62953125 192.5390625 673.6015625 C194.16321318 671.20664169 194.16321318 671.20664169 194 669 C194.66 669 195.32 669 196 669 C196.598125 667.9275 197.19625 666.855 197.8125 665.75 C199.03558027 663.59546359 200.25021742 661.66935555 201.75 659.6875 C203.19840918 658.0821538 203.19840918 658.0821538 203 656 C203.66 656 204.32 656 205 656 C205.54269531 655.03578125 206.08539062 654.0715625 206.64453125 653.078125 C207.3670425 651.80200123 208.08970683 650.52596412 208.8125 649.25 C209.16892578 648.61578125 209.52535156 647.9815625 209.89257812 647.328125 C211.35490311 644.75228649 212.7835711 642.28570763 214.57421875 639.921875 C216.42080913 637.43277235 217.65985733 634.7919639 219 632 C221.68156183 626.41341285 221.68156183 626.41341285 223.43823242 624.1328125 C225.11691421 621.84033727 226.28069193 619.57058016 227.48828125 617 C227.94436768 616.03658691 228.4004541 615.07317383 228.87036133 614.08056641 C229.34626709 613.06397949 229.82217285 612.04739258 230.3125 611 C233.22421196 604.82375689 236.13080343 598.66683871 239.3125 592.625 C242.35890741 586.62903628 244.46358497 580.3407592 246.60546875 573.98046875 C247.46134074 571.46395859 248.39201608 569.09583389 249.453125 566.6484375 C251.42721939 561.99236638 252.99046676 557.24149836 254.5625 552.4375 C254.86607422 551.51775391 255.16964844 550.59800781 255.48242188 549.65039062 C256.06960502 547.87093145 256.65488271 546.09084211 257.23803711 544.31005859 C257.82312464 542.53623666 258.42704988 540.76861933 259.0390625 539.00390625 C267.39527912 512.88223722 273.65505885 484.83790576 275.74511719 457.47924805 C276.00364224 454.96457189 276.50423209 452.47883955 277 450 C182.62 450 88.24 450 -9 450 Z " fill="#E3E3E3" transform="translate(551,92)"/>
<path d="M0 0 C0 8.58 0 17.16 0 26 C-2.371875 27.134375 -4.74375 28.26875 -7.1875 29.4375 C-23.97088126 37.74612154 -38.06596931 48.93998372 -48 65 C-48.64453125 65.98871094 -49.2890625 66.97742188 -49.953125 67.99609375 C-64.31782952 91.2702047 -68.5242045 119.39217995 -62.54345703 146.03369141 C-56.58134694 169.69313118 -42.19196901 188.53868733 -22 202 C-21.67 186.82 -21.34 171.64 -21 156 C-12.75 156 -4.5 156 4 156 C4 186.03 4 216.06 4 247 C-26.36 247 -56.72 247 -88 247 C-88 223 -88 223 -87 222 C-85.52749355 221.87767356 -84.04934289 221.8222544 -82.57202148 221.79467773 C-81.63112167 221.77473251 -80.69022186 221.75478729 -79.72080994 221.73423767 C-78.69790359 221.71752518 -77.67499725 221.70081268 -76.62109375 221.68359375 C-75.058395 221.6524221 -75.058395 221.6524221 -73.46412659 221.62062073 C-70.12198753 221.55500943 -66.77976715 221.49618669 -63.4375 221.4375 C-61.17772582 221.39432578 -58.91795999 221.35071186 -56.65820312 221.30664062 C-51.10555579 221.19931633 -45.55282679 221.09757188 -40 221 C-40.7940625 220.37351562 -41.588125 219.74703125 -42.40625 219.1015625 C-43.93765625 217.87566406 -43.93765625 217.87566406 -45.5 216.625 C-47.03140625 215.40683594 -47.03140625 215.40683594 -48.59375 214.1640625 C-49.3878125 213.44992187 -50.181875 212.73578125 -51 212 C-51 211.34 -51 210.68 -51 210 C-51.598125 209.731875 -52.19625 209.46375 -52.8125 209.1875 C-54.99847854 208.00082594 -56.41332594 206.90400887 -58 205 C-58 204.34 -58 203.68 -58 203 C-58.66 203 -59.32 203 -60 203 C-60 202.34 -60 201.68 -60 201 C-60.66 201 -61.32 201 -62 201 C-63.84039546 198.74461341 -65.55868295 196.48879214 -67.25 194.125 C-67.74653076 193.43462646 -68.24306152 192.74425293 -68.75463867 192.03295898 C-76.05581827 181.79409737 -80.93714494 171.8587159 -85 160 C-85.32097656 159.07832031 -85.64195312 158.15664063 -85.97265625 157.20703125 C-89.69749965 145.73301614 -90.39220174 133.9248724 -90.375 121.9375 C-90.37412384 121.2619104 -90.37324768 120.5863208 -90.37234497 119.89025879 C-90.25087981 91.34216255 -81.39235481 65.96855437 -63.8828125 43.42578125 C-62.51917584 41.66889668 -61.23364979 39.85047468 -60 38 C-59.34 38 -58.68 38 -58 38 C-57.61328125 37.12601563 -57.61328125 37.12601563 -57.21875 36.234375 C-55.90165983 33.8197097 -54.44911616 32.18259823 -52.5 30.25 C-51.58734375 29.32960938 -51.58734375 29.32960938 -50.65625 28.390625 C-49 27 -49 27 -47 27 C-47 26.34 -47 25.68 -47 25 C-35.90730297 15.55425362 -15.44208237 0 0 0 Z " fill="#E4E4E4" transform="translate(874,773)"/>
<path d="M0 0 C30.36 0 60.72 0 92 0 C92 8.25 92 16.5 92 25 C76.16 25.33 60.32 25.66 44 26 C50.93 32.93 50.93 32.93 58 40 C79.55704352 65.96117069 95.66268838 96.29808456 94 131 C93.95552734 132.54494141 93.95552734 132.54494141 93.91015625 134.12109375 C92.28308006 169.08338941 74.77030255 200.12722266 49.375 223.40625 C46.98193584 225.38997424 44.54494556 227.21548111 42 229 C40.95585938 229.73605469 39.91171875 230.47210937 38.8359375 231.23046875 C28.00144778 238.63088145 16.75405855 243.81148536 4 247 C4 238.42 4 229.84 4 221 C6.371875 219.865625 8.74375 218.73125 11.1875 217.5625 C36.00628884 205.28746675 53.51883822 185.27997589 62.97265625 159.2421875 C64.6649782 153.90139959 65.93094344 148.49697323 67 143 C67.18433594 142.09894531 67.36867188 141.19789063 67.55859375 140.26953125 C69.45485616 126.22376454 68.44288862 112.41606694 64 99 C63.45666016 97.32744141 63.45666016 97.32744141 62.90234375 95.62109375 C56.98031854 78.93904985 42.74009716 53.37004858 26 45 C25.67 60.51 25.34 76.02 25 92 C21.060625 92.020625 17.12125 92.04125 13.0625 92.0625 C11.19670288 92.07615601 11.19670288 92.07615601 9.29321289 92.09008789 C8.3211792 92.09258545 7.34914551 92.09508301 6.34765625 92.09765625 C4.84730835 92.10551147 4.84730835 92.10551147 3.31665039 92.11352539 C1 92 1 92 0 91 C-0.09521025 88.16955779 -0.12552324 85.3636833 -0.11352539 82.53295898 C-0.11370619 81.17976484 -0.11370619 81.17976484 -0.11389065 79.79923344 C-0.11314134 76.86482888 -0.1055123 73.93048701 -0.09765625 70.99609375 C-0.09618689 69.19014517 -0.09516614 67.38419616 -0.09460449 65.57824707 C-0.08935096 58.86465824 -0.07538989 52.15107851 -0.0625 45.4375 C-0.041875 30.443125 -0.02125 15.44875 0 0 Z " fill="#E4E4E4" transform="translate(943,767)"/>
<path d="M0 0 C0 124.41 0 248.82 0 377 C95.04 377 190.08 377 288 377 C288 382.76631651 287.92892355 387.64393936 287.16015625 393.23046875 C286.98419922 394.52791016 286.80824219 395.82535156 286.62695312 397.16210938 C286.4388618 398.50391462 286.25071028 399.84571143 286.0625 401.1875 C285.87772569 402.54094344 285.69347736 403.8944588 285.50976562 405.24804688 C284.74276612 410.84574871 283.9507603 416.43020414 283 422 C282.34 422 281.68 422 281 422 C280.94392578 422.82177734 280.94392578 422.82177734 280.88671875 423.66015625 C280.23011252 431.57805492 278.64485951 439.24122873 277 447 C276.34 447 275.68 447 275 447 C274.90460937 448.04414062 274.80921875 449.08828125 274.7109375 450.1640625 C273.93168093 456.36803847 272.24070117 462.34616464 270.625 468.375 C270.32078125 469.56222656 270.0165625 470.74945312 269.703125 471.97265625 C269.25066406 473.66841797 269.25066406 473.66841797 268.7890625 475.3984375 C268.51787598 476.42630371 268.24668945 477.45416992 267.96728516 478.51318359 C267 481 267 481 264 483 C264.26401995 481.68611248 264.53675364 480.37397661 264.8125 479.0625 C264.96332031 478.33160156 265.11414063 477.60070312 265.26953125 476.84765625 C265.88288241 474.4565707 266.59701981 472.18428346 267.39453125 469.8515625 C269.12871139 464.73046878 270.5253388 459.54637628 271.875 454.3125 C272.1332959 453.31138184 272.3915918 452.31026367 272.65771484 451.27880859 C278.0939013 430.01794679 283.26687121 408.4467453 284.64746094 386.47924805 C285 384 285 384 287 379 C192.62 379 98.24 379 1 379 C1 503.08 1 627.16 1 755 C6.94 752.69 12.88 750.38 19 748 C21.31 747.67 23.62 747.34 26 747 C23.6870518 749.3129482 22.52095125 749.49580975 19.375 750.125 C18.14910156 750.37636719 18.14910156 750.37636719 16.8984375 750.6328125 C16.27195312 750.75398437 15.64546875 750.87515625 15 751 C15 751.66 15 752.32 15 753 C12.89748139 753.67184618 10.79292237 754.33730968 8.6875 755 C7.51574219 755.37125 6.34398437 755.7425 5.13671875 756.125 C2 757 2 757 -1 757 C-1 631.93 -1 506.86 -1 378 C-96.37 378 -191.74 378 -290 378 C-292.03491404 367.82542982 -293.1518786 358.70292081 -293.12025452 348.42674255 C-293.12110894 347.39816464 -293.12196337 346.36958673 -293.12284368 345.30983979 C-293.12448332 341.88289273 -293.11900203 338.45599524 -293.11352539 335.02905273 C-293.11324317 332.56470236 -293.11340194 330.10035191 -293.1139679 327.63600159 C-293.1141952 322.34047757 -293.11136925 317.04496881 -293.10573006 311.74944878 C-293.0975822 304.09313959 -293.09499647 296.43683636 -293.09374207 288.78052331 C-293.0915567 276.35685265 -293.08491061 263.93318857 -293.07543945 251.50952148 C-293.06625199 239.44539421 -293.05917769 227.38126874 -293.05493164 215.31713867 C-293.05466892 214.57275429 -293.05440619 213.82836991 -293.05413551 213.06142842 C-293.05283041 209.32684633 -293.05156672 205.59226422 -293.05032361 201.85768211 C-293.03996705 170.90511662 -293.02228812 139.95255931 -293 109 C-292.01 109 -291.02 109 -290 109 C-290 108.34 -290 107.68 -290 107 C-287.56427941 106.16112944 -285.12666783 105.32873471 -282.6875 104.5 C-281.99720703 104.26152344 -281.30691406 104.02304687 -280.59570312 103.77734375 C-277.61068511 102.76791737 -275.17341086 102 -272 102 C-272 101.34 -272 100.68 -272 100 C-268.56496228 98.82599412 -265.12659286 97.66206791 -261.6875 96.5 C-260.71103516 96.16613281 -259.73457031 95.83226562 -258.72851562 95.48828125 C-257.79072266 95.17246094 -256.85292969 94.85664063 -255.88671875 94.53125 C-255.02264404 94.23798828 -254.15856934 93.94472656 -253.26831055 93.64257812 C-251 93 -251 93 -248 93 C-248 92.34 -248 91.68 -248 91 C-245.06497405 89.99263372 -242.12660539 88.99539496 -239.1875 88 C-238.35412109 87.71382813 -237.52074219 87.42765625 -236.66210938 87.1328125 C-235.45844727 86.72675781 -235.45844727 86.72675781 -234.23046875 86.3125 C-233.49207764 86.06113281 -232.75368652 85.80976563 -231.99291992 85.55078125 C-230 85 -230 85 -227 85 C-227 84.34 -227 83.68 -227 83 C-223.06495351 81.65934762 -219.12658354 80.32873929 -215.1875 79 C-214.06794922 78.6184375 -212.94839844 78.236875 -211.79492188 77.84375 C-210.72177734 77.4828125 -209.64863281 77.121875 -208.54296875 76.75 C-207.0583313 76.24726563 -207.0583313 76.24726563 -205.54370117 75.734375 C-203 75 -203 75 -200 75 C-200 74.34 -200 73.68 -200 73 C-195.89811052 71.65958897 -191.79313564 70.32888808 -187.6875 69 C-186.52025391 68.6184375 -185.35300781 68.236875 -184.15039062 67.84375 C-183.03212891 67.4828125 -181.91386719 67.121875 -180.76171875 66.75 C-179.73006592 66.41484375 -178.69841309 66.0796875 -177.63549805 65.734375 C-175 65 -175 65 -172 65 C-172 64.34 -172 63.68 -172 63 C-168.06495351 61.65934762 -164.12658354 60.32873929 -160.1875 59 C-159.06794922 58.6184375 -157.94839844 58.236875 -156.79492188 57.84375 C-155.72177734 57.4828125 -154.64863281 57.121875 -153.54296875 56.75 C-152.55321045 56.41484375 -151.56345215 56.0796875 -150.54370117 55.734375 C-148 55 -148 55 -145 55 C-145 54.34 -145 53.68 -145 53 C-142.56427941 52.16112944 -140.12666783 51.32873471 -137.6875 50.5 C-136.99720703 50.26152344 -136.30691406 50.02304688 -135.59570312 49.77734375 C-132.61068511 48.76791737 -130.17341086 48 -127 48 C-127 47.34 -127 46.68 -127 46 C-124.08919272 44.96189556 -121.17062342 43.94762359 -118.25 42.9375 C-117.425 42.64294922 -116.6 42.34839844 -115.75 42.04492188 C-114.95078125 41.77099609 -114.1515625 41.49707031 -113.328125 41.21484375 C-112.5949707 40.95823975 -111.86181641 40.70163574 -111.10644531 40.43725586 C-108.72635182 39.94319612 -107.28425328 40.23933463 -105 41 C-109.16644945 42.60473123 -113.33319857 44.20868296 -117.5 45.8125 C-118.67304688 46.26431641 -119.84609375 46.71613281 -121.0546875 47.18164062 C-124.36880486 48.45701725 -127.68397854 49.72958308 -131 51 C-131.73702148 51.28294922 -132.47404297 51.56589844 -133.23339844 51.85742188 C-137.87947133 53.62259652 -142.57064635 55.24361776 -147.2722168 56.85449219 C-155.42578466 59.64877879 -163.47919586 62.48879705 -171.38671875 65.921875 C-175.18805453 67.49013909 -179.08883588 68.70576992 -183 69.96875 C-186.06499901 71.02234341 -189.01985203 72.22722847 -192 73.5 C-196.93041122 75.60569646 -201.90429206 77.324141 -207.00390625 78.96875 C-210.05069264 80.01744831 -212.97895974 81.22483416 -215.9375 82.5 C-220.15427259 84.30718825 -224.34875198 85.76801529 -228.75 87.0625 C-233.05201107 88.33377987 -236.78720229 89.80716366 -240.71484375 91.93359375 C-244.49297139 93.69671998 -248.47990261 94.87113822 -252.44311523 96.14428711 C-255.87719956 97.25851743 -259.17904223 98.4459663 -262.4375 100 C-267.20273153 102.24620647 -272.19553221 103.68926496 -277.24194336 105.16210938 C-280.42994308 106.11087688 -283.32134401 107.16086215 -286.30078125 108.65234375 C-289 110 -289 110 -292 110 C-291.9178176 140.31051421 -291.82568544 170.62098385 -291.71994839 200.93142456 C-291.70743174 204.52190974 -291.69499862 208.11239521 -291.68261719 211.70288086 C-291.68015119 212.41758588 -291.6776852 213.1322909 -291.67514448 213.86865365 C-291.63558109 225.39261965 -291.60276171 236.91659526 -291.57250018 248.44058902 C-291.54122253 260.29342868 -291.50254559 272.14622813 -291.45720994 283.99902242 C-291.43199775 290.64467268 -291.41027692 297.29030412 -291.39665604 303.93599129 C-291.38368987 310.20930267 -291.3614836 316.48251774 -291.33261681 322.75577545 C-291.32365338 325.04077287 -291.31787762 327.32578575 -291.31578636 329.61079979 C-292.68909741 353.41290359 -292.68909741 353.41290359 -288 376 C-193.29 376.33 -98.58 376.66 -1 377 C-1.495 191.87 -1.495 191.87 -2 3 C-13.73808426 6.8436258 -13.73808426 6.8436258 -25.046875 11.3984375 C-27 12 -27 12 -30 11 C-29.34 11 -28.68 11 -28 11 C-28 10.34 -28 9.68 -28 9 C-25.37605694 8.16320723 -22.75095616 7.33043058 -20.125 6.5 C-19.37863281 6.26152344 -18.63226562 6.02304688 -17.86328125 5.77734375 C-12.2265625 4 -12.2265625 4 -10 4 C-10 3.34 -10 2.68 -10 2 C-6.38026598 0.68373308 -3.90432869 0 0 0 Z " fill="#F6F6F6" transform="translate(541,163)"/>
<path d="M0 0 C0.7434668 0.24129639 1.48693359 0.48259277 2.25292969 0.73120117 C4.09943849 1.34207798 5.92592134 2.0125909 7.75 2.6875 C8.94109375 3.12449219 10.1321875 3.56148438 11.359375 4.01171875 C12.23078125 4.33785156 13.1021875 4.66398437 14 5 C14 5.66 14 6.32 14 7 C14.55945313 7.08636719 15.11890625 7.17273438 15.6953125 7.26171875 C23.46667503 8.62358132 30.64256972 11.22241105 38 14 C38 14.66 38 15.32 38 16 C38.57105469 16.08636719 39.14210938 16.17273438 39.73046875 16.26171875 C47.23309969 17.5618567 53.95859076 20.16831156 61 23 C63.66113624 24.01492115 66.33019837 25.0081321 69 26 C84.61759911 31.81941951 84.61759911 31.81941951 90.125 34.0625 C95.19642961 36.11848498 100.34692815 37.93627377 105.5078125 39.75390625 C107.98720437 40.63861096 110.4522129 41.54192761 112.9140625 42.47265625 C116.30417835 43.75076983 119.71454678 44.95743723 123.13793945 46.14306641 C129.92489216 48.49508169 136.57045082 51.02199394 143.17578125 53.8515625 C147.05434048 55.42873596 151.01742289 56.68270948 155 57.96875 C159.08479878 59.37289958 163.01826976 61.08035845 166.98828125 62.77734375 C170.99980786 64.40588828 175.09295038 65.7089633 179.2109375 67.0390625 C181.66637712 67.8850543 183.96323446 68.83765658 186.3125 69.9375 C190.2174092 71.74847238 194.22232165 73.1150807 198.3125 74.4375 C204.02742486 76.28556756 209.54143445 78.42487182 215.05859375 80.796875 C219.94875657 82.79710096 224.96640054 84.40245691 230 86 C230 86.66 230 87.32 230 88 C230.80824219 88.10699219 231.61648438 88.21398437 232.44921875 88.32421875 C236.71783311 89.1366173 240.70337489 90.41881424 244.8125 91.8125 C245.61856689 92.08312256 246.42463379 92.35374512 247.25512695 92.63256836 C251.85325718 94.19883122 256.2789465 95.91760574 260.66796875 98.00390625 C264.51596541 99.64752291 268.51503907 100.8577996 272.49291992 102.14477539 C276.65383434 103.50667167 280.5722658 105.09370492 284.52734375 106.953125 C290.20001285 109.35482377 296.13935135 111.11594431 302 113 C302 113.66 302 114.32 302 115 C302.80824219 115.10699219 303.61648438 115.21398437 304.44921875 115.32421875 C308.71780788 116.1366125 312.70343326 117.41868881 316.8125 118.8125 C318.0205127 119.21843384 318.0205127 119.21843384 319.25292969 119.63256836 C323.85745732 121.20212387 328.31341237 122.90013584 332.70703125 124.99609375 C337.04562009 126.8956122 341.57514493 128.33289699 346.05859375 129.8515625 C349 131 349 131 351 133 C351.24954766 135.04524928 351.24954766 135.04524928 351.24888897 137.62276936 C351.25578716 139.093243 351.25578716 139.093243 351.26282471 140.59342319 C351.25510937 142.22074187 351.25510937 142.22074187 351.24723816 143.88093567 C351.24965257 145.02755651 351.25206699 146.17417735 351.25455457 147.35554427 C351.25923109 150.54858533 351.25488228 153.74147063 351.24679029 156.93450034 C351.24022894 160.37525767 351.24515877 163.81600054 351.24867249 167.25675964 C351.25372494 174.00666928 351.24805728 180.75653007 351.23882218 187.50643364 C351.22843852 195.37984659 351.22850848 203.25324896 351.22899476 211.12666746 C351.22949605 225.19619029 351.22032178 239.26569044 351.20581055 253.33520508 C351.19177292 266.95272231 351.18463758 280.57021957 351.18530273 294.18774414 C351.18534269 295.02365197 351.18538265 295.8595598 351.18542381 296.72079817 C351.18546417 297.55532331 351.18550452 298.38984844 351.1855461 299.24966222 C351.18623932 314.77772281 351.18031997 330.30577499 351.17139288 345.83383283 C351.16839478 351.30427458 351.16731544 356.77471476 351.16686058 362.24515724 C351.16617233 368.93935093 351.16162517 375.63353047 351.15252777 382.32771818 C351.14796479 385.73481614 351.14538566 389.14188133 351.14612198 392.54898453 C351.14865219 411.40280456 351.09510729 430.29441885 348.94921875 449.05078125 C348.85049973 449.95571823 348.7517807 450.86065521 348.65007019 451.79301453 C348.3370794 454.63379052 348.01340603 457.47317905 347.6875 460.3125 C347.5770636 461.29114014 347.4666272 462.26978027 347.35284424 463.27807617 C345.33606898 481.10304022 343.21095798 498.96014837 338.890625 516.40234375 C338.15644086 519.36806127 337.46777221 522.33607442 336.796875 525.31640625 C332.41851352 544.50297292 327.1290499 563.63540069 320 582 C319.53013672 583.25296875 319.53013672 583.25296875 319.05078125 584.53125 C318.3671875 586.35416667 317.68359375 588.17708333 317 590 C315.73143855 586.19431564 316.4894611 584.61145825 317.65234375 580.80078125 C318.01650391 579.59228516 318.38066406 578.38378906 318.75585938 577.13867188 C319.14955268 575.86322354 319.54343533 574.58783364 319.9375 573.3125 C320.3282691 572.02563181 320.71825262 570.73852479 321.10742188 569.45117188 C322.06389828 566.29834223 323.02838316 563.14819032 324 560 C324.66 560 325.32 560 326 560 C326.09796875 559.319375 326.1959375 558.63875 326.296875 557.9375 C327.65451074 549.13627518 329.75034849 540.60546305 332 532 C332.66 532 333.32 532 334 532 C334.10441406 530.69417969 334.20882813 529.38835938 334.31640625 528.04296875 C335.00810658 521.14176876 336.27210364 514.34634559 337.52905273 507.53100586 C337.9384267 505.3074666 338.33973143 503.08257416 338.74023438 500.85742188 C339.00212581 499.42178765 339.26447961 497.98623769 339.52734375 496.55078125 C339.76187256 495.26856689 339.99640137 493.98635254 340.23803711 492.6652832 C341 489 341 489 342.02734375 485.60644531 C343.18475274 481.31496799 343.64222278 477.16291396 344.03515625 472.74609375 C344.11873886 471.85052261 344.20232147 470.95495148 344.28843689 470.03224182 C344.46399105 468.12881907 344.63608164 466.2250741 344.80493164 464.32104492 C345.0547104 461.52470664 345.32039063 458.73023755 345.58789062 455.93554688 C346.56986504 445.30577845 347.19937476 434.69075503 347.54356384 424.02133179 C347.58601414 422.7166518 347.62846443 421.41197181 347.6722011 420.06775606 C348.09500561 406.49635484 348.17405283 392.92726259 348.20532227 379.35009766 C348.21443649 376.63634401 348.22491134 373.92259599 348.23532104 371.20884705 C348.25676293 365.43897794 348.27501974 359.66910644 348.29092598 353.89921951 C348.31392683 345.55758552 348.34202234 337.21597436 348.37124526 328.87436013 C348.41855826 315.33096386 348.46191712 301.78755807 348.50268555 288.24414062 C348.54222767 275.11099512 348.58369661 261.97785796 348.62768555 248.84472656 C348.63177196 247.62441344 348.63177196 247.62441344 348.63594092 246.37944753 C348.64962346 242.29694687 348.66334312 238.21444633 348.67708123 234.13194585 C348.79047377 200.4213146 348.89733796 166.71066562 349 133 C346.03 132.34 343.06 131.68 340 131 C340 130.34 340 129.68 340 129 C338.71222656 128.73445312 337.42445313 128.46890625 336.09765625 128.1953125 C331.08736139 127.08191364 326.28669215 125.54328174 321.4375 123.875 C320.61958984 123.59785156 319.80167969 123.32070312 318.95898438 123.03515625 C316.97123432 122.36094863 314.98540651 121.68107796 313 121 C313 120.34 313 119.68 313 119 C312.18208984 118.83564453 312.18208984 118.83564453 311.34765625 118.66796875 C305.74464935 117.48990063 300.3945613 115.912965 295 114 C295 113.34 295 112.68 295 112 C293.71222656 111.73445313 292.42445313 111.46890625 291.09765625 111.1953125 C286.08736139 110.08191364 281.28669215 108.54328174 276.4375 106.875 C275.61958984 106.59785156 274.80167969 106.32070312 273.95898438 106.03515625 C271.97123432 105.36094863 269.98540651 104.68107796 268 104 C268 103.34 268 102.68 268 102 C266.71222656 101.73445313 265.42445313 101.46890625 264.09765625 101.1953125 C259.08736139 100.08191364 254.28669215 98.54328174 249.4375 96.875 C248.61958984 96.59785156 247.80167969 96.32070312 246.95898438 96.03515625 C244.97123432 95.36094863 242.98540651 94.68107796 241 94 C241 93.34 241 92.68 241 92 C239.824375 91.773125 238.64875 91.54625 237.4375 91.3125 C230.45686044 89.77989164 223.74623825 87.328741 217 85 C217 84.34 217 83.68 217 83 C215.7625 82.7525 214.525 82.505 213.25 82.25 C207.35173142 80.95181648 201.69655237 78.98560032 196 77 C196 76.34 196 75.68 196 75 C194.71222656 74.73445313 193.42445313 74.46890625 192.09765625 74.1953125 C187.08736139 73.08191364 182.28669215 71.54328174 177.4375 69.875 C176.61958984 69.59785156 175.80167969 69.32070312 174.95898438 69.03515625 C172.97123432 68.36094863 170.98540651 67.68107796 169 67 C169 66.34 169 65.68 169 65 C167.7625 64.7525 166.525 64.505 165.25 64.25 C159.35173142 62.95181648 153.69655237 60.98560032 148 59 C148 58.34 148 57.68 148 57 C146.2365625 56.6596875 146.2365625 56.6596875 144.4375 56.3125 C137.45686044 54.77989164 130.74623825 52.328741 124 50 C124 49.34 124 48.68 124 48 C122.71222656 47.73445313 121.42445313 47.46890625 120.09765625 47.1953125 C115.08736139 46.08191364 110.28669215 44.54328174 105.4375 42.875 C104.61958984 42.59785156 103.80167969 42.32070312 102.95898438 42.03515625 C100.97123432 41.36094863 98.98540651 40.68107796 97 40 C97 39.34 97 38.68 97 38 C95.7625 37.7525 94.525 37.505 93.25 37.25 C87.35173142 35.95181648 81.69655237 33.98560032 76 32 C76 31.34 76 30.68 76 30 C74.2365625 29.6596875 74.2365625 29.6596875 72.4375 29.3125 C65.45686044 27.77989164 58.74623825 25.328741 52 23 C52 22.34 52 21.68 52 21 C50.2365625 20.6596875 50.2365625 20.6596875 48.4375 20.3125 C41.45686044 18.77989164 34.74623825 16.328741 28 14 C28 13.34 28 12.68 28 12 C26.7625 11.7525 25.525 11.505 24.25 11.25 C18.35173142 9.95181648 12.69655237 7.98560032 7 6 C7 5.34 7 4.68 7 4 C6.41992188 3.87882812 5.83984375 3.75765625 5.2421875 3.6328125 C1.70314092 2.87361109 -1.62597547 2.14805137 -5 0.8125 C-11.58196933 -0.97011669 -17.83335865 1.04869526 -24.0546875 3.37890625 C-26 4 -26 4 -29 4 C-29 4.66 -29 5.32 -29 6 C-31.97 6.66 -34.94 7.32 -38 8 C-37.34 7.67 -36.68 7.34 -36 7 C-36 6.34 -36 5.68 -36 5 C-32.26869602 3.55029516 -28.51356658 2.17601437 -24.75 0.8125 C-23.18378906 0.20245117 -23.18378906 0.20245117 -21.5859375 -0.41992188 C-13.43022056 -3.31469795 -8.08421569 -2.89376522 0 0 Z " fill="#FBFBFB" transform="translate(551,92)"/>
<path d="M0 0 C95.04 0 190.08 0 288 0 C287.38840599 11.00869211 286.74079901 21.3561826 284.9375 32.125 C284.75123047 33.28386719 284.56496094 34.44273437 284.37304688 35.63671875 C283.9235469 38.42592374 283.46592748 41.21350115 283 44 C282.34 44 281.68 44 281 44 C280.96261719 44.54785156 280.92523437 45.09570312 280.88671875 45.66015625 C280.23011252 53.57805492 278.64485951 61.24122873 277 69 C276.34 69 275.68 69 275 69 C274.90460938 70.04414062 274.80921875 71.08828125 274.7109375 72.1640625 C273.93168093 78.36803847 272.24070117 84.34616464 270.625 90.375 C270.32078125 91.56222656 270.0165625 92.74945312 269.703125 93.97265625 C269.25066406 95.66841797 269.25066406 95.66841797 268.7890625 97.3984375 C268.38228271 98.94023682 268.38228271 98.94023682 267.96728516 100.51318359 C267 103 267 103 264 105 C264.26401995 103.68611248 264.53675364 102.37397661 264.8125 101.0625 C265.03873047 99.96615234 265.03873047 99.96615234 265.26953125 98.84765625 C265.88288241 96.4565707 266.59701981 94.18428346 267.39453125 91.8515625 C269.12871139 86.73046878 270.5253388 81.54637628 271.875 76.3125 C272.1332959 75.31138184 272.3915918 74.31026367 272.65771484 73.27880859 C278.0939013 52.01794679 283.26687121 30.4467453 284.64746094 8.47924805 C285 6 285 6 287 1 C192.62 1 98.24 1 1 1 C1 125.08 1 249.16 1 377 C6.94 374.69 12.88 372.38 19 370 C21.31 369.67 23.62 369.34 26 369 C23.6870518 371.3129482 22.52095125 371.49580975 19.375 372.125 C18.55773437 372.29257812 17.74046875 372.46015625 16.8984375 372.6328125 C16.27195312 372.75398438 15.64546875 372.87515625 15 373 C15 373.66 15 374.32 15 375 C12.87607494 375.6700834 10.75082476 376.33596797 8.625 377 C7.44164062 377.37125 6.25828125 377.7425 5.0390625 378.125 C2 379 2 379 0 379 C0 253.93 0 128.86 0 0 Z " fill="#FEFEFE" transform="translate(541,541)"/>
<path d="M0 0 C0 0.66 0 1.32 0 2 C-2.43572059 2.83887056 -4.87333217 3.67126529 -7.3125 4.5 C-8.34793945 4.85771484 -8.34793945 4.85771484 -9.40429688 5.22265625 C-12.38931489 6.23208263 -14.82658914 7 -18 7 C-17.89491187 41.25092976 -17.78502921 75.50184055 -17.66888306 109.75273458 C-17.65511657 113.81359051 -17.64138901 117.87444658 -17.62768555 121.93530273 C-17.62495724 122.74360894 -17.62222894 123.55191515 -17.61941796 124.38471549 C-17.57556758 137.4035163 -17.53485783 150.42232508 -17.49534739 163.44113971 C-17.45461262 176.83985845 -17.41041323 190.23856268 -17.36312145 203.6372599 C-17.3341404 211.8780487 -17.30773321 220.11883693 -17.28482103 228.35964488 C-17.26876175 234.04171246 -17.24928108 239.72376247 -17.22733159 245.4058103 C-17.21483853 248.66425387 -17.2041543 251.92268364 -17.19658089 255.18114281 C-17.16368127 268.93522198 -16.98223161 282.67588028 -16.55357361 296.42295837 C-16.49668298 298.30178722 -16.49668298 298.30178722 -16.43864304 300.2185722 C-16.09538625 310.39247574 -15.34126672 320.50986191 -14.40234375 330.64453125 C-13.96150671 335.77147532 -13.90552845 340.85724874 -14 346 C-14.33 346 -14.66 346 -15 346 C-15.48780353 341.10498568 -15.96651659 336.20915703 -16.4375 331.3125 C-16.54212555 330.22479309 -16.54212555 330.22479309 -16.64886475 329.1151123 C-17.59943227 319.14865625 -18.3804653 309.20652614 -18.70874023 299.1965332 C-18.80372213 295.09219873 -18.80372213 295.09219873 -19.50479478 291.06428343 C-20.07543695 288.68553796 -20.12909462 286.55843117 -20.13422108 284.11209011 C-20.13867892 283.12365846 -20.14313676 282.13522681 -20.14772969 281.11684269 C-20.14754533 280.03329299 -20.14736097 278.9497433 -20.14717102 277.83335876 C-20.15084771 276.680496 -20.1545244 275.52763323 -20.1583125 274.33983523 C-20.16742978 271.13941421 -20.17204689 267.93902332 -20.17470181 264.73859155 C-20.17860891 261.28730307 -20.18818659 257.83602939 -20.19691467 254.38475037 C-20.21666197 246.05263431 -20.2267406 237.72051707 -20.23564246 229.38838348 C-20.24002599 225.4662484 -20.24539243 221.54411468 -20.25063133 217.62198067 C-20.26763771 204.58872603 -20.28213447 191.55547224 -20.28938007 178.52220821 C-20.29128999 175.14135169 -20.29321033 171.76049517 -20.29516602 168.37963867 C-20.29564976 167.53933424 -20.2961335 166.69902982 -20.2966319 165.83326162 C-20.30494211 152.20406293 -20.33029833 138.57495173 -20.36274669 124.9457913 C-20.39577471 110.95948492 -20.41382475 96.9732231 -20.41702431 82.9868775 C-20.41919278 75.13125622 -20.42799095 67.27576272 -20.45348549 59.42017937 C-20.47513398 52.73426706 -20.48327174 46.0485136 -20.47351871 39.36257022 C-20.4689576 35.94947246 -20.4709643 32.53670286 -20.49028015 29.1236496 C-20.50782159 25.42870371 -20.50098023 21.73460214 -20.48774719 18.03965759 C-20.49871644 16.95387718 -20.50968568 15.86809676 -20.52098733 14.74941391 C-20.51240644 13.76359001 -20.50382555 12.7777661 -20.49498463 11.76206875 C-20.49596144 10.90872714 -20.49693824 10.05538552 -20.49794465 9.17618507 C-20 7 -20 7 -18.14875096 5.27536875 C-15.51372759 3.71137808 -12.91247756 2.7626958 -10 1.8125 C-8.96875 1.46832031 -7.9375 1.12414062 -6.875 0.76953125 C-4 0 -4 0 0 0 Z " fill="#FEFEFE" transform="translate(198,218)"/>
<path d="M0 0 C-4.16644945 1.60473123 -8.33319857 3.20868296 -12.5 4.8125 C-13.67304688 5.26431641 -14.84609375 5.71613281 -16.0546875 6.18164062 C-19.36880486 7.45701725 -22.68397854 8.72958308 -26 10 C-26.73702148 10.28294922 -27.47404297 10.56589844 -28.23339844 10.85742188 C-32.87947133 12.62259652 -37.57064635 14.24361776 -42.2722168 15.85449219 C-50.42578466 18.64877879 -58.47919586 21.48879705 -66.38671875 24.921875 C-70.18805453 26.49013909 -74.08883588 27.70576992 -78 28.96875 C-81.06499901 30.02234341 -84.01985203 31.22722847 -87 32.5 C-91.93041122 34.60569646 -96.90429206 36.324141 -102.00390625 37.96875 C-105.05069264 39.01744831 -107.97895974 40.22483416 -110.9375 41.5 C-115.15427259 43.30718825 -119.34875198 44.76801529 -123.75 46.0625 C-128.05201107 47.33377987 -131.78720229 48.80716366 -135.71484375 50.93359375 C-139.49297139 52.69671998 -143.47990261 53.87113822 -147.44311523 55.14428711 C-150.87719956 56.25851743 -154.17904223 57.4459663 -157.4375 59 C-162.20273153 61.24620647 -167.19553221 62.68926496 -172.24194336 64.16210938 C-175.42994308 65.11087688 -178.32134401 66.16086215 -181.30078125 67.65234375 C-184 69 -184 69 -187 69 C-186.9178176 99.31051421 -186.82568544 129.62098385 -186.71994839 159.93142456 C-186.70743174 163.52190974 -186.69499862 167.11239521 -186.68261719 170.70288086 C-186.68015119 171.41758588 -186.6776852 172.1322909 -186.67514448 172.86865365 C-186.63558109 184.39261965 -186.60276171 195.91659526 -186.57250018 207.44058902 C-186.54122253 219.29342868 -186.50254559 231.14622813 -186.45720994 242.99902242 C-186.43199775 249.64467268 -186.41027692 256.29030412 -186.39665604 262.93599129 C-186.38368987 269.20930267 -186.3614836 275.48251774 -186.33261681 281.75577545 C-186.32365338 284.04077287 -186.31787762 286.32578575 -186.31578636 288.61079979 C-187.0499236 312.61983346 -187.0499236 312.61983346 -183 336 C-183.99 335.67 -184.98 335.34 -186 335 C-188.11114956 321.0208236 -188.27275518 307.2375244 -188.22705078 293.12084961 C-188.22648554 290.65531926 -188.22680542 288.18978858 -188.22793579 285.72425842 C-188.22838835 280.45068886 -188.22278822 275.17716421 -188.21146011 269.90360832 C-188.19509309 262.27926509 -188.18998576 254.65494568 -188.18748413 247.03058679 C-188.18312444 234.6557128 -188.16986258 222.28086543 -188.15087891 209.90600586 C-188.13247515 197.89656709 -188.11834075 185.8871356 -188.10986328 173.87768555 C-188.10933783 173.13540295 -188.10881239 172.39312036 -188.10827102 171.62834435 C-188.10566064 167.90392737 -188.10313329 164.17951033 -188.10064721 160.45509326 C-188.07996854 129.6367095 -188.04464013 98.81835882 -188 68 C-187.01 68 -186.02 68 -185 68 C-185 67.34 -185 66.68 -185 66 C-182.56427941 65.16112944 -180.12666783 64.32873471 -177.6875 63.5 C-176.99720703 63.26152344 -176.30691406 63.02304687 -175.59570312 62.77734375 C-172.61068511 61.76791737 -170.17341086 61 -167 61 C-167 60.34 -167 59.68 -167 59 C-163.56496228 57.82599412 -160.12659286 56.66206791 -156.6875 55.5 C-155.71103516 55.16613281 -154.73457031 54.83226562 -153.72851562 54.48828125 C-152.32182617 54.01455078 -152.32182617 54.01455078 -150.88671875 53.53125 C-150.02264404 53.23798828 -149.15856934 52.94472656 -148.26831055 52.64257812 C-146 52 -146 52 -143 52 C-143 51.34 -143 50.68 -143 50 C-140.06497405 48.99263372 -137.12660539 47.99539496 -134.1875 47 C-133.35412109 46.71382812 -132.52074219 46.42765625 -131.66210938 46.1328125 C-130.85966797 45.86210937 -130.05722656 45.59140625 -129.23046875 45.3125 C-128.12288208 44.93544922 -128.12288208 44.93544922 -126.99291992 44.55078125 C-125 44 -125 44 -122 44 C-122 43.34 -122 42.68 -122 42 C-118.06495351 40.65934762 -114.12658354 39.32873929 -110.1875 38 C-109.06794922 37.6184375 -107.94839844 37.236875 -106.79492188 36.84375 C-105.72177734 36.4828125 -104.64863281 36.121875 -103.54296875 35.75 C-102.55321045 35.41484375 -101.56345215 35.0796875 -100.54370117 34.734375 C-98 34 -98 34 -95 34 C-95 33.34 -95 32.68 -95 32 C-90.89811052 30.65958897 -86.79313564 29.32888808 -82.6875 28 C-81.52025391 27.6184375 -80.35300781 27.236875 -79.15039062 26.84375 C-78.03212891 26.4828125 -76.91386719 26.121875 -75.76171875 25.75 C-74.73006592 25.41484375 -73.69841309 25.0796875 -72.63549805 24.734375 C-70 24 -70 24 -67 24 C-67 23.34 -67 22.68 -67 22 C-63.06495351 20.65934762 -59.12658354 19.32873929 -55.1875 18 C-54.06794922 17.6184375 -52.94839844 17.236875 -51.79492188 16.84375 C-50.18520508 16.30234375 -50.18520508 16.30234375 -48.54296875 15.75 C-47.55321045 15.41484375 -46.56345215 15.0796875 -45.54370117 14.734375 C-43 14 -43 14 -40 14 C-40 13.34 -40 12.68 -40 12 C-37.56427941 11.16112944 -35.12666783 10.32873471 -32.6875 9.5 C-31.99720703 9.26152344 -31.30691406 9.02304688 -30.59570312 8.77734375 C-27.61068511 7.76791737 -25.17341086 7 -22 7 C-22 6.34 -22 5.68 -22 5 C-19.08919272 3.96189556 -16.17062342 2.94762359 -13.25 1.9375 C-12.425 1.64294922 -11.6 1.34839844 -10.75 1.04492188 C-9.95078125 0.77099609 -9.1515625 0.49707031 -8.328125 0.21484375 C-7.5949707 -0.04176025 -6.86181641 -0.29836426 -6.10644531 -0.56274414 C-3.72635182 -1.05680388 -2.28425328 -0.76066537 0 0 Z " fill="#FDFDFD" transform="translate(436,204)"/>
<path d="M0 0 C0.33 0 0.66 0 1 0 C1.00173625 0.55378966 1.0034725 1.10757931 1.00526136 1.67815048 C1.10879437 34.66463891 1.21700876 67.65110841 1.33111694 100.63756191 C1.34488283 104.61815639 1.35861048 108.59875101 1.37231445 112.5793457 C1.37504276 113.3716496 1.37777106 114.16395349 1.38058204 114.98026659 C1.42438826 127.72800426 1.46511266 140.47574995 1.50465261 153.22350148 C1.54544087 166.3510366 1.5896464 179.47855717 1.63687855 192.6060707 C1.66324233 199.95968875 1.68812018 207.31330507 1.70907402 214.66694069 C1.76339207 251.65657603 1.76339207 251.65657603 2.46777344 288.63769531 C2.48760029 289.32102578 2.50742714 290.00435624 2.5278548 290.70839369 C2.87338232 302.16024345 3.65463648 313.54114667 4.8125 324.9375 C4.98759263 326.74883287 5.16239135 328.56019416 5.33691406 330.37158203 C6.69331455 344.16173054 8.4699685 357.86594024 10.69628906 371.54443359 C11.00683963 374.05529985 11.05318248 376.47270079 11 379 C3.7699166 366.43251464 4.00061906 348.72822525 3.04418945 334.70092773 C2.81583013 331.36120268 2.56693839 328.02352529 2.31445312 324.68554688 C1.45219307 312.93563307 0.83349127 301.18737975 0.45509338 289.41197205 C0.43368318 288.74763536 0.41227297 288.08329868 0.39021397 287.39883059 C-0.06298833 273.07217229 -0.13517276 258.75362535 -0.11352539 244.42016602 C-0.11324221 241.72597148 -0.11336018 239.03177965 -0.1139679 236.33758545 C-0.11448447 230.61301253 -0.11143024 224.88845128 -0.10573006 219.1638813 C-0.09749473 210.88779508 -0.09498774 202.61171432 -0.09374207 194.33562445 C-0.0915701 180.89814425 -0.08496117 167.46067022 -0.07543945 154.02319336 C-0.06621675 140.99389679 -0.05915989 127.96460192 -0.05493164 114.93530273 C-0.05466892 114.12799737 -0.05440619 113.32069201 -0.05413551 112.48892284 C-0.05283018 108.43766107 -0.05156654 104.38639928 -0.05032361 100.33513749 C-0.04000896 66.89008718 -0.02244217 33.44504436 0 0 Z " fill="#EDEDED" transform="translate(180,225)"/>
<path d="M0 0 C0.495 0.99 0.495 0.99 1 2 C-4.06118314 12.63060225 -11.80964836 22.5293095 -18.77734375 31.9765625 C-20.49577137 34.31410728 -22.19277675 36.66274553 -23.87890625 39.0234375 C-24.87755854 40.41149116 -25.87625617 41.79951221 -26.875 43.1875 C-27.35171143 43.86014893 -27.82842285 44.53279785 -28.31958008 45.22583008 C-29.49752255 46.85372078 -30.7432076 48.43218322 -32 50 C-32.66 50 -33.32 50 -34 50 C-34.2784375 50.58652344 -34.556875 51.17304687 -34.84375 51.77734375 C-38.50504343 58.81543822 -44.23056647 64.5634605 -49.5625 70.34765625 C-51.55661266 72.51753204 -53.51000823 74.70883764 -55.4375 76.9375 C-71.66755653 95.58479899 -71.66755653 95.58479899 -77 100 C-77.66 100 -78.32 100 -79 100 C-79.20367188 100.54011719 -79.40734375 101.08023438 -79.6171875 101.63671875 C-81.5579882 104.95362391 -84.28928053 107.27752655 -87.125 109.8125 C-87.71249023 110.34512451 -88.29998047 110.87774902 -88.90527344 111.42651367 C-90.59795633 112.95733434 -92.29795535 114.47960478 -94 116 C-94.76570312 116.6909375 -95.53140625 117.381875 -96.3203125 118.09375 C-101.03756637 122.29535264 -105.99192628 126.15349471 -111 130 C-112.66998649 131.32917292 -114.33857487 132.66014102 -116 134 C-116.66 133.67 -117.32 133.34 -118 133 C-113.375 128.125 -113.375 128.125 -110 127 C-109.67 126.01 -109.34 125.02 -109 124 C-107.13677238 122.47398229 -105.2094654 121.02530088 -103.25 119.625 C-99.12482633 116.66828685 -95.53701961 113.63690222 -92 110 C-90.71959989 108.88278814 -89.42865551 107.77748583 -88.125 106.6875 C-84.5418218 103.60556034 -81.52077303 100.2654642 -78.54296875 96.6015625 C-77 95 -77 95 -74 94 C-72.31424511 92.07687525 -72.31424511 92.07687525 -70.6875 89.75 C-68.56995518 86.92213952 -66.6083762 84.47682041 -63.8125 82.3125 C-60.77083023 79.81157153 -59.12544216 77.29100722 -57 74 C-55.3540349 72.31288577 -53.68762851 70.6454378 -52 69 C-51.34 68.175 -50.68 67.35 -50 66.5 C-48 64 -48 64 -45.625 61.6875 C-43.00983693 59.01007114 -40.87125109 56.24760432 -38.66796875 53.234375 C-36.84192725 50.78824915 -34.92870918 48.42838326 -33 46.0625 C-29.89020492 42.20777302 -27.1250127 38.24526421 -24.4375 34.08984375 C-23.03138754 32.04563134 -21.52418541 30.22621062 -19.875 28.375 C-17.00861582 25.15408935 -15.01878338 21.80463021 -13 18 C-12.34 18 -11.68 18 -11 18 C-10.89300781 17.443125 -10.78601563 16.88625 -10.67578125 16.3125 C-9.87517129 13.57284047 -8.6592602 11.44423973 -7.1875 9 C-6.68605469 8.154375 -6.18460938 7.30875 -5.66796875 6.4375 C-3.98765613 3.98196118 -2.16668681 2.03038764 0 0 Z " fill="#FBFBFB" transform="translate(816,781)"/>
<path d="M0 0 C4.60853797 0.72008406 8.67237409 2.31295939 13 4 C13 4.66 13 5.32 13 6 C13.51304687 6.14695312 14.02609375 6.29390625 14.5546875 6.4453125 C23.44985952 9.05096895 32.21687075 12.04358721 41 15 C41 15.66 41 16.32 41 17 C42.15757812 17.26554688 43.31515625 17.53109375 44.5078125 17.8046875 C46.04690993 18.16130764 47.58597048 18.51808691 49.125 18.875 C49.88554687 19.04902344 50.64609375 19.22304688 51.4296875 19.40234375 C55.70725424 20.39798428 59.85405809 21.52971389 64 23 C64 23.66 64 24.32 64 25 C65.7015625 25.185625 65.7015625 25.185625 67.4375 25.375 C70.52531171 25.75076545 73.47992935 26.32192615 76.5 27.0625 C84.6436986 28.89067724 91.04417174 27.70433519 99.046875 25.65625 C102 25 102 25 106 25 C106 24.34 106 23.68 106 23 C109.3111957 22.03712186 112.62418304 21.08055083 115.9375 20.125 C116.86369141 19.85558594 117.78988281 19.58617187 118.74414062 19.30859375 C124.46367152 17.66297434 130.17672628 16.23035322 136 15 C136 14.34 136 13.68 136 13 C138.07772471 12.13227971 140.16243177 11.28126381 142.25 10.4375 C143.41015625 9.96183594 144.5703125 9.48617187 145.765625 8.99609375 C148.86266644 8.04229476 150.07321701 7.79016644 153 9 C136.53004289 17.20492389 119.07829683 22.4105394 101.42578125 27.421875 C97.19009349 28.62593406 93.03242991 29.97557307 88.88842773 31.46411133 C82.96329814 33.14551527 76.34012038 29.95550067 70.703125 28.16015625 C68.15501052 27.36185456 65.61523693 26.59571193 63.046875 25.87109375 C49.71334467 22.10072727 36.71479115 17.51721114 24 12 C22.44629529 11.35180589 20.89153392 10.70614096 19.3359375 10.0625 C18.52382813 9.72476563 17.71171875 9.38703125 16.875 9.0390625 C15.20166932 8.34358443 13.52717651 7.65089621 11.8515625 6.9609375 C7.71607442 5.23562241 3.7141472 3.54684379 0 1 C0 0.67 0 0.34 0 0 Z " fill="#FCFCFC" transform="translate(455,960)"/>
<path d="M0 0 C0.33 1.32 0.66 2.64 1 4 C1.66 4 2.32 4 3 4 C4.00674459 7.26879616 5.00422489 10.5403471 6 13.8125 C6.28617188 14.74126953 6.57234375 15.67003906 6.8671875 16.62695312 C7.13789063 17.51962891 7.40859375 18.41230469 7.6875 19.33203125 C7.93886719 20.15421143 8.19023437 20.9763916 8.44921875 21.82348633 C9 24 9 24 9 27 C9.66 27 10.32 27 11 27 C12.17430074 30.2681432 13.33811256 33.53992515 14.5 36.8125 C14.83386719 37.74126953 15.16773438 38.67003906 15.51171875 39.62695312 C15.82753906 40.51962891 16.14335937 41.41230469 16.46875 42.33203125 C16.76201172 43.15421143 17.05527344 43.9763916 17.35742188 44.82348633 C18 47 18 47 18 50 C18.66 50 19.32 50 20 50 C21.1721449 52.95619219 22.33677476 55.91528789 23.5 58.875 C23.83386719 59.71675781 24.16773438 60.55851563 24.51171875 61.42578125 C24.82753906 62.23144531 25.14335937 63.03710938 25.46875 63.8671875 C25.76201172 64.61081543 26.05527344 65.35444336 26.35742188 66.12060547 C27 68 27 68 27 70 C27.66 70 28.32 70 29 70 C30.17094005 72.7899439 31.33690927 75.58178597 32.5 78.375 C32.83386719 79.1690625 33.16773438 79.963125 33.51171875 80.78125 C33.82753906 81.54179688 34.14335937 82.30234375 34.46875 83.0859375 C34.76201172 83.7876709 35.05527344 84.4894043 35.35742188 85.21240234 C36 87 36 87 36 89 C36.66 89 37.32 89 38 89 C39.00484204 90.95585325 40.00373805 92.91476237 41 94.875 C41.556875 95.96554687 42.11375 97.05609375 42.6875 98.1796875 C44 101 44 101 44 103 C44.66 103 45.32 103 46 103 C46.86366822 104.78710586 47.71568594 106.5798465 48.5625 108.375 C49.03816406 109.37273437 49.51382813 110.37046875 50.00390625 111.3984375 C50.33261719 112.25695312 50.66132813 113.11546875 51 114 C50.67 114.66 50.34 115.32 50 116 C45.72776184 111.25306871 41 104.56573109 41 98 C40.34 98 39.68 98 39 98 C38.50371094 96.93523437 38.00742188 95.87046875 37.49609375 94.7734375 C34.22029785 87.76698686 30.92191674 80.78048045 27.4375 73.875 C14 47.15374714 14 47.15374714 14 40 C13.34 40 12.68 40 12 40 C11.01321102 37.14827038 10.03543182 34.29395658 9.0625 31.4375 C8.78470703 30.63763672 8.50691406 29.83777344 8.22070312 29.01367188 C6.6315549 24.32281264 5.52252019 19.92756382 5 15 C4.34 15 3.68 15 3 15 C2.491217 13.44033782 1.99336531 11.87710759 1.5 10.3125 C1.2215625 9.44238281 0.943125 8.57226562 0.65625 7.67578125 C0.00149195 5.00608323 -0.11831495 2.73603316 0 0 Z " fill="#FBFBFB" transform="translate(202,648)"/>
<path d="M0 0 C-2.43572059 0.83887056 -4.87333217 1.67126529 -7.3125 2.5 C-8.34793945 2.85771484 -8.34793945 2.85771484 -9.40429688 3.22265625 C-12.38931489 4.23208263 -14.82658914 5 -18 5 C-18 5.66 -18 6.32 -18 7 C-20.43572059 7.83887056 -22.87333217 8.67126529 -25.3125 9.5 C-26.00279297 9.73847656 -26.69308594 9.97695312 -27.40429688 10.22265625 C-30.38931489 11.23208263 -32.82658914 12 -36 12 C-36 12.66 -36 13.32 -36 14 C-38.43572059 14.83887056 -40.87333217 15.67126529 -43.3125 16.5 C-44.00279297 16.73847656 -44.69308594 16.97695312 -45.40429688 17.22265625 C-48.38931489 18.23208263 -50.82658914 19 -54 19 C-54 19.66 -54 20.32 -54 21 C-57.93504649 22.34065238 -61.87341646 23.67126071 -65.8125 25 C-66.93205078 25.3815625 -68.05160156 25.763125 -69.20507812 26.15625 C-70.27822266 26.5171875 -71.35136719 26.878125 -72.45703125 27.25 C-73.44678955 27.58515625 -74.43654785 27.9203125 -75.45629883 28.265625 C-78 29 -78 29 -81 29 C-81 29.66 -81 30.32 -81 31 C-84.41084768 32.20469568 -87.82943733 33.38570092 -91.25 34.5625 C-92.70212891 35.07586914 -92.70212891 35.07586914 -94.18359375 35.59960938 C-95.11816406 35.91865234 -96.05273438 36.23769531 -97.015625 36.56640625 C-98.30388184 37.01415405 -98.30388184 37.01415405 -99.61816406 37.47094727 C-102.16586928 38.03684284 -103.56315454 37.85092276 -106 37 C-104.90945313 36.65388672 -104.90945313 36.65388672 -103.796875 36.30078125 C-97.38962661 34.22253273 -91.20345261 31.86931896 -85.01171875 29.22265625 C-81.00019214 27.59411172 -76.90704962 26.2910367 -72.7890625 24.9609375 C-70.33362288 24.1149457 -68.03676554 23.16234342 -65.6875 22.0625 C-61.09388624 19.92885426 -56.32499945 18.41386821 -51.51513672 16.85791016 C-47.28551755 15.47357442 -43.28840025 13.85958678 -39.26171875 11.98046875 C-27.77290837 7 -27.77290837 7 -22 7 C-22 6.34 -22 5.68 -22 5 C-19.08919272 3.96189556 -16.17062342 2.94762359 -13.25 1.9375 C-12.0125 1.49567383 -12.0125 1.49567383 -10.75 1.04492188 C-9.95078125 0.77099609 -9.1515625 0.49707031 -8.328125 0.21484375 C-7.5949707 -0.04176025 -6.86181641 -0.29836426 -6.10644531 -0.56274414 C-3.72635182 -1.05680388 -2.28425328 -0.76066537 0 0 Z " fill="#FCFCFC" transform="translate(513,101)"/>
<path d="M0 0 C4.24888689 1.5174596 5.61497237 4.3140482 8 8 C8.804375 8.804375 9.60875 9.60875 10.4375 10.4375 C12.48253353 12.48253353 13.9529366 14.26990264 15.5625 16.625 C17.44693354 19.36599424 19.3119729 21.02878012 22 23 C23.0064275 24.66279327 24.00585407 26.32983484 25 28 C26.6436814 29.68933922 28.3142876 31.35259924 30 33 C31.13427887 34.28352609 32.25861098 35.57588363 33.375 36.875 C36.7480647 40.7686899 40.32384424 44.39488106 44 48 C44.825 48.845625 45.65 49.69125 46.5 50.5625 C48.46925101 52.48251974 50.44139686 54.19918618 52.5625 55.9375 C55.78493537 58.64631576 57.85238216 61.39200202 60 65 C55.41863796 63.78728652 53.52206291 61.46694525 50.671875 57.93359375 C48.30845423 55.20019823 45.60899796 52.94894071 42.8671875 50.60546875 C37.97583346 46.39972291 33.76726561 41.56185317 29.4765625 36.76171875 C26.09987817 32.99623638 22.68058905 29.27014297 19.26171875 25.54296875 C13 18.50259067 13 18.50259067 13 16 C12.01 15.67 11.02 15.34 10 15 C9.03109968 13.63017541 8.07161082 12.25171656 7.18359375 10.828125 C5.3387138 7.97860745 3.24105706 5.32563107 1.171875 2.63671875 C0 1 0 1 0 0 Z " fill="#FCFCFC" transform="translate(293,825)"/>
<path d="M0 0 C0.495 1.485 0.495 1.485 1 3 C-0.80078125 5.69921875 -0.80078125 5.69921875 -3.3125 8.6875 C-4.13363281 9.68136719 -4.95476563 10.67523437 -5.80078125 11.69921875 C-6.52652344 12.45847656 -7.25226562 13.21773437 -8 14 C-8.66 14 -9.32 14 -10 14 C-10.38091797 14.88945313 -10.38091797 14.88945313 -10.76953125 15.796875 C-12.13626374 18.24397699 -13.51742982 19.49347954 -15.6875 21.25 C-19.40420025 24.37094502 -22.49024074 27.74036481 -25.5546875 31.49609375 C-26.03164063 31.99238281 -26.50859375 32.48867188 -27 33 C-27.66 33 -28.32 33 -29 33 C-29.226875 33.5775 -29.45375 34.155 -29.6875 34.75 C-31.34761639 37.59591381 -33.39187957 38.99841921 -36 41 C-36.78375 41.804375 -37.5675 42.60875 -38.375 43.4375 C-40.88992586 45.89254668 -43.42254301 47.76070592 -46.3046875 49.73828125 C-48.25618015 51.12185526 -48.25618015 51.12185526 -50.625 53.6875 C-53.03128763 56.03046427 -54.82844928 57.00322692 -58 58 C-56.51198753 54.15314957 -54.41262618 52.65471498 -51 50.4375 C-47.83111952 48.36943701 -46.12436151 47.18654226 -44 44 C-43.01 44 -42.02 44 -41 44 C-40.74041504 43.4028418 -40.48083008 42.80568359 -40.21337891 42.19042969 C-38.90416442 39.82699461 -37.67103105 38.64974933 -35.5859375 36.953125 C-30.49770087 32.64433357 -25.8078273 27.95853504 -21.10693359 23.23730469 C-19.61019068 21.735137 -18.10809001 20.2384727 -16.60546875 18.7421875 C-15.64551202 17.78157098 -14.685865 16.82064485 -13.7265625 15.859375 C-12.86627441 14.99795898 -12.00598633 14.13654297 -11.11962891 13.24902344 C-8.87356103 10.99125736 -8.87356103 10.99125736 -7 8 C-6.34 8 -5.68 8 -5 8 C-4.731875 7.4225 -4.46375 6.845 -4.1875 6.25 C-2.98280141 3.9674132 -1.59201885 2.0262058 0 0 Z " fill="#FCFCFC" transform="translate(716,799)"/>
<path d="M0 0 C-12.54383575 4.81317599 -25.11291178 9.55213059 -37.72192383 14.19213867 C-43.47985285 16.31352418 -49.22461946 18.4619548 -54.94921875 20.671875 C-56.60280396 21.3062146 -56.60280396 21.3062146 -58.28979492 21.95336914 C-60.38797333 22.7599926 -62.48333883 23.57398175 -64.57543945 24.39624023 C-65.97669067 24.93293335 -65.97669067 24.93293335 -67.40625 25.48046875 C-68.22416016 25.79910889 -69.04207031 26.11774902 -69.88476562 26.44604492 C-72 27 -72 27 -75 26 C-74.34 26 -73.68 26 -73 26 C-73 25.34 -73 24.68 -73 24 C-70.06497405 22.99263372 -67.12660539 21.99539496 -64.1875 21 C-63.35412109 20.71382812 -62.52074219 20.42765625 -61.66210938 20.1328125 C-60.45844727 19.72675781 -60.45844727 19.72675781 -59.23046875 19.3125 C-58.49207764 19.06113281 -57.75368652 18.80976563 -56.99291992 18.55078125 C-55 18 -55 18 -52 18 C-52 17.34 -52 16.68 -52 16 C-48.06495351 14.65934762 -44.12658354 13.32873929 -40.1875 12 C-38.50817383 11.42765625 -38.50817383 11.42765625 -36.79492188 10.84375 C-35.18520508 10.30234375 -35.18520508 10.30234375 -33.54296875 9.75 C-32.55321045 9.41484375 -31.56345215 9.0796875 -30.54370117 8.734375 C-28 8 -28 8 -25 8 C-25 7.34 -25 6.68 -25 6 C-21.40047958 4.79808016 -17.79475743 3.61597552 -14.1875 2.4375 C-13.16333984 2.09525391 -12.13917969 1.75300781 -11.08398438 1.40039062 C-10.10107422 1.08134766 -9.11816406 0.76230469 -8.10546875 0.43359375 C-7.19949951 0.13509521 -6.29353027 -0.16340332 -5.36010742 -0.47094727 C-3 -1 -3 -1 0 0 Z " fill="#FBFBFB" transform="translate(511,176)"/>
<path d="M0 0 C-0.66 0 -1.32 0 -2 0 C-2 0.66 -2 1.32 -2 2 C-4.43572059 2.83887056 -6.87333217 3.67126529 -9.3125 4.5 C-10.00279297 4.73847656 -10.69308594 4.97695312 -11.40429688 5.22265625 C-14.38931489 6.23208263 -16.82658914 7 -20 7 C-20 7.66 -20 8.32 -20 9 C-23.93504649 10.34065238 -27.87341646 11.67126071 -31.8125 13 C-33.49182617 13.57234375 -33.49182617 13.57234375 -35.20507812 14.15625 C-36.81479492 14.69765625 -36.81479492 14.69765625 -38.45703125 15.25 C-39.44678955 15.58515625 -40.43654785 15.9203125 -41.45629883 16.265625 C-44 17 -44 17 -47 17 C-47 17.66 -47 18.32 -47 19 C-50.93257916 20.36876382 -54.87174367 21.71747832 -58.8125 23.0625 C-60.49182617 23.64741211 -60.49182617 23.64741211 -62.20507812 24.24414062 C-63.27822266 24.60830078 -64.35136719 24.97246094 -65.45703125 25.34765625 C-66.44678955 25.68804932 -67.43654785 26.02844238 -68.45629883 26.37915039 C-71 27 -71 27 -74 26 C-73.17757813 25.68546875 -72.35515625 25.3709375 -71.5078125 25.046875 C-66.28292557 23.04380056 -61.06186746 21.03734473 -55.875 18.9375 C-52.3040927 17.50797012 -48.72421935 16.10684856 -45.125 14.75 C-44.24070312 14.41484375 -43.35640625 14.0796875 -42.4453125 13.734375 C-40 13 -40 13 -36 13 C-36 12.34 -36 11.68 -36 11 C-35.46221924 10.8141333 -34.92443848 10.6282666 -34.37036133 10.43676758 C-31.85027596 9.5642959 -29.33127355 8.68875161 -26.8125 7.8125 C-25.90443604 7.49732422 -24.99637207 7.18214844 -24.06079102 6.85742188 C-17.77270142 4.66057314 -11.58404776 2.30935667 -5.43359375 -0.25 C-3 -1 -3 -1 0 0 Z " fill="#FAFAFA" transform="translate(407,140)"/>
<path d="M0 0 C1.2807647 3.8422941 0.46522525 4.97520038 -1.0625 8.671875 C-1.52615967 9.80391357 -1.98981934 10.93595215 -2.4675293 12.10229492 C-3.22610229 13.90790894 -3.22610229 13.90790894 -4 15.75 C-4.51444501 16.98983834 -5.02852287 18.22982908 -5.54223633 19.4699707 C-9.14070012 28.09384579 -12.8739887 36.61395383 -17 45 C-17.32597168 45.67095703 -17.65194336 46.34191406 -17.98779297 47.03320312 C-21.65894569 54.58587994 -25.33341655 62.00012483 -30 69 C-30.88336837 66.5332355 -31.1312406 65.36140628 -30.22265625 62.859375 C-29.83980469 62.16328125 -29.45695313 61.4671875 -29.0625 60.75 C-28.68222656 60.04359375 -28.30195312 59.3371875 -27.91015625 58.609375 C-27.60980469 58.07828125 -27.30945313 57.5471875 -27 57 C-26.34 57 -25.68 57 -25 57 C-24.82984375 56.45472656 -24.6596875 55.90945313 -24.484375 55.34765625 C-22.67459186 49.71615022 -20.49654622 44.36060431 -18 39 C-17.34 39 -16.68 39 -16 39 C-15.82984375 38.39414062 -15.6596875 37.78828125 -15.484375 37.1640625 C-13.68433058 30.94050468 -11.50381567 24.97357039 -9 19 C-8.34 19 -7.68 19 -7 19 C-6.80664062 18.27554688 -6.61328125 17.55109375 -6.4140625 16.8046875 C-5.07139714 11.81954385 -3.71250514 6.87405309 -2 2 C-1.34 2 -0.68 2 0 2 C0 1.34 0 0.68 0 0 Z " fill="#FCFCFC" transform="translate(866,682)"/>
<path d="M0 0 C4.65686738 2.01092001 6.92713459 4.03501237 10 8 C11.65532623 9.01866229 13.32260138 10.01810813 15 11 C16.12288077 12.15590668 17.24451931 13.31309014 18.35546875 14.48046875 C21.43603082 17.32687883 24.93702212 19.64328355 28.34765625 22.07421875 C30.43649872 23.5908599 32.42007292 25.13177049 34.375 26.8125 C36.93568775 29.06741284 36.93568775 29.06741284 39.875 30.6875 C40.57625 31.120625 41.2775 31.55375 42 32 C42 32.66 42 33.32 42 34 C42.721875 34.268125 43.44375 34.53625 44.1875 34.8125 C46.99766383 35.99901362 49.48416557 37.27485639 52 39 C52 39.66 52 40.32 52 41 C53.32 41.66 54.64 42.32 56 43 C55.01 43.495 55.01 43.495 54 44 C35.35135637 31.84384711 15.57419853 17.97960066 0 2 C0 1.34 0 0.68 0 0 Z " fill="#FBFBFB" transform="translate(353,890)"/>
<path d="M0 0 C0.66 0.33 1.32 0.66 2 1 C-1.75 4 -1.75 4 -4 4 C-4.226875 4.61875 -4.45375 5.2375 -4.6875 5.875 C-6.38416443 8.6219805 -8.05251711 8.86635273 -11 10 C-11.33 10.99 -11.66 11.98 -12 13 C-14.65234375 14.82421875 -14.65234375 14.82421875 -17.9375 16.6875 C-19.01902344 17.31011719 -20.10054687 17.93273437 -21.21484375 18.57421875 C-24 20 -24 20 -26 20 C-26 20.66 -26 21.32 -26 22 C-28.45570175 23.33838733 -30.91429916 24.67086232 -33.375 26 C-34.07367187 26.3815625 -34.77234375 26.763125 -35.4921875 27.15625 C-40.7734375 30 -40.7734375 30 -43 30 C-43.33 30.99 -43.66 31.98 -44 33 C-46.3984375 34.421875 -46.3984375 34.421875 -49.375 35.75 C-50.35210938 36.19859375 -51.32921875 36.6471875 -52.3359375 37.109375 C-55 38 -55 38 -58 37 C-55.00650167 35.3214751 -52.00472324 33.65834452 -49 32 C-47.87078125 31.37609375 -46.7415625 30.7521875 -45.578125 30.109375 C-44.40649047 29.46831032 -43.2346168 28.82768248 -42.0625 28.1875 C-40.96035156 27.58292969 -39.85820313 26.97835937 -38.72265625 26.35546875 C-36 25 -36 25 -34 25 C-34 24.34 -34 23.68 -34 23 C-32.08965944 21.69749507 -30.11831337 20.4840895 -28.125 19.3125 C-22.93127773 16.2247449 -17.98222084 12.94636585 -13.12109375 9.34765625 C-11.02728933 8.01733852 -9.3802533 7.56896406 -7 7 C-6.690625 6.38125 -6.38125 5.7625 -6.0625 5.125 C-4.62170764 2.24341528 -2.86520066 1.36097031 0 0 Z " fill="#FCFCFC" transform="translate(656,857)"/>
<path d="M0 0 C0.66 0.33 1.32 0.66 2 1 C-10.33275007 8.72512484 -22.91727188 15.60843817 -36 22 C-36.6079541 22.30035156 -37.2159082 22.60070312 -37.84228516 22.91015625 C-39.61867288 23.78439447 -41.40298239 24.64247874 -43.1875 25.5 C-44.23292969 26.0053125 -45.27835938 26.510625 -46.35546875 27.03125 C-49 28 -49 28 -52 27 C-50.68 26.67 -49.36 26.34 -48 26 C-48 25.34 -48 24.68 -48 24 C-45.5433053 22.99580363 -43.08481647 21.99649499 -40.625 21 C-39.92632813 20.71382812 -39.22765625 20.42765625 -38.5078125 20.1328125 C-33.2265625 18 -33.2265625 18 -31 18 C-31 17.34 -31 16.68 -31 16 C-28.54379149 14.82866942 -26.08525083 13.66278278 -23.625 12.5 C-22.92632813 12.16613281 -22.22765625 11.83226562 -21.5078125 11.48828125 C-16.2265625 9 -16.2265625 9 -14 9 C-14 8.34 -14 7.68 -14 7 C-11.71296692 5.80274117 -9.42115138 4.61702982 -7.125 3.4375 C-6.47402344 3.09525391 -5.82304688 2.75300781 -5.15234375 2.40039062 C-3.46470143 1.53917109 -1.73420407 0.76313297 0 0 Z " fill="#FCFCFC" transform="translate(660,940)"/>
<path d="M0 0 C0.33 0 0.66 0 1 0 C1.20157715 0.99330322 1.4031543 1.98660645 1.61083984 3.01000977 C2.36473518 6.72119087 3.12226766 10.43162198 3.88085938 14.1418457 C4.20768729 15.74288263 4.5335495 17.34411701 4.85839844 18.94555664 C5.32749192 21.25720905 5.80013901 23.5681116 6.2734375 25.87890625 C6.41623138 26.58648575 6.55902527 27.29406525 6.70614624 28.02308655 C7.39081338 31.34961529 8.15230781 34.60205913 9.13134766 37.85522461 C9.96386829 40.86919264 10.13833814 42.15415465 9 45 C8.74605469 44.09378906 8.49210938 43.18757812 8.23046875 42.25390625 C6.02105693 34.34977267 6.02105693 34.34977267 3.4375 26.5625 C2.0805243 22.56654392 1.12843658 18.49836621 0.25 14.375 C-0.01296875 13.14523437 -0.2759375 11.91546875 -0.546875 10.6484375 C-1.01923232 6.84514666 -0.71342574 3.75030558 0 0 Z " fill="#F6F6F6" transform="translate(192,603)"/>
<path d="M0 0 C2.02045442 0.60183749 4.02111039 1.27306096 6 2 C6.33 2.66 6.66 3.32 7 4 C9.33843243 5.2776108 11.6643111 6.47161883 14.0625 7.625 C14.72572266 7.94984375 15.38894531 8.2746875 16.07226562 8.609375 C17.71221247 9.41165115 19.35577492 10.2065288 21 11 C21 11.66 21 12.32 21 13 C21.804375 13.2475 22.60875 13.495 23.4375 13.75 C27.74324143 15.26078647 31.85364007 17.10188856 36 19 C36 19.66 36 20.32 36 21 C37.98 21.66 39.96 22.32 42 23 C39 24 39 24 37.08203125 23.3203125 C36.33308594 22.92585937 35.58414063 22.53140625 34.8125 22.125 C33.92820312 21.65964844 33.04390625 21.19429687 32.1328125 20.71484375 C31.09898437 20.14894531 30.06515625 19.58304688 29 19 C28.39897461 18.6714502 27.79794922 18.34290039 27.17871094 18.00439453 C19.87388908 13.99466251 12.63911176 9.86073006 5.5 5.5625 C4.4378125 4.92441406 3.375625 4.28632812 2.28125 3.62890625 C1.5284375 3.09136719 0.775625 2.55382812 0 2 C0 1.34 0 0.68 0 0 Z " fill="#FCFCFC" transform="translate(413,936)"/>
<path d="M0 0 C0.99 0.33 1.98 0.66 3 1 C-8.43254818 10.52034261 -8.43254818 10.52034261 -14 14 C-15.83401541 15.16559413 -17.66727551 16.33237714 -19.5 17.5 C-20.44488281 18.09941406 -21.38976562 18.69882812 -22.36328125 19.31640625 C-25.26991446 21.17234538 -28.1426426 23.06935311 -31 25 C-31.66 24.67 -32.32 24.34 -33 24 C-30.16500048 20.87516027 -26.96941902 19.28381381 -23.25390625 17.37890625 C-20.76822123 15.8582012 -19.05431976 14.05823275 -17 12 C-15.2374434 10.80987492 -13.44347155 9.66529857 -11.625 8.5625 C-8.3627732 6.54861866 -5.34707924 4.56809409 -2.5 2 C-1.675 1.34 -0.85 0.68 0 0 Z " fill="#FCFCFC" transform="translate(695,915)"/>
<path d="M0 0 C1.5 1.375 1.5 1.375 3 3 C3 3.66 3 4.32 3 5 C3.66 5 4.32 5 5 5 C5.53109375 6.03640625 6.0621875 7.0728125 6.609375 8.140625 C7.32252374 9.51062127 8.03608736 10.88040164 8.75 12.25 C9.09804688 12.93191406 9.44609375 13.61382813 9.8046875 14.31640625 C11.82422962 18.16849585 13.80988137 20.98895248 17 24 C18.30078125 26.0703125 18.30078125 26.0703125 19.3125 28.125 C19.65925781 28.80820312 20.00601562 29.49140625 20.36328125 30.1953125 C20.67845703 31.08863281 20.67845703 31.08863281 21 32 C20.67 32.66 20.34 33.32 20 34 C15.50433285 27.99817025 11.22418536 21.97758252 7.453125 15.4921875 C6.42685918 13.73208644 5.37183814 11.98860178 4.296875 10.2578125 C3.74515625 9.36835937 3.1934375 8.47890625 2.625 7.5625 C2.12226563 6.75941406 1.61953125 5.95632813 1.1015625 5.12890625 C0 3 0 3 0 0 Z " fill="#FBFBFB" transform="translate(253,764)"/>
<path d="M0 0 C-2.97 0.66 -5.94 1.32 -9 2 C-9 2.66 -9 3.32 -9 4 C-12.43503772 5.17400588 -15.87340714 6.33793209 -19.3125 7.5 C-20.28896484 7.83386719 -21.26542969 8.16773438 -22.27148438 8.51171875 C-23.67817383 8.98544922 -23.67817383 8.98544922 -25.11328125 9.46875 C-25.97735596 9.76201172 -26.84143066 10.05527344 -27.73168945 10.35742188 C-30 11 -30 11 -33 11 C-33 11.66 -33 12.32 -33 13 C-34.43344 13.53190541 -35.87195367 14.05015258 -37.3125 14.5625 C-38.51326172 14.99755859 -38.51326172 14.99755859 -39.73828125 15.44140625 C-42 16 -42 16 -45 15 C-39.34605989 12.02764291 -33.75755797 9.72138585 -27.6875 7.75 C-26.49157227 7.3478125 -26.49157227 7.3478125 -25.27148438 6.9375 C-19.39473055 5 -19.39473055 5 -16 5 C-16 4.34 -16 3.68 -16 3 C-14.08802961 2.29954544 -12.17019565 1.615081 -10.25 0.9375 C-9.18265625 0.55464844 -8.1153125 0.17179688 -7.015625 -0.22265625 C-4 -1 -4 -1 0 0 Z " fill="#FDFDFD" transform="translate(243,202)"/>
<path d="M0 0 C0.33 0 0.66 0 1 0 C1 2.31 1 4.62 1 7 C1.66 7 2.32 7 3 7 C3.5742149 10.89542197 4.14372513 14.79150056 4.70898438 18.68823242 C4.996238 20.66165521 5.28715735 22.63454328 5.578125 24.60742188 C5.75859375 25.85458984 5.9390625 27.10175781 6.125 28.38671875 C6.29257813 29.53358154 6.46015625 30.68044434 6.6328125 31.86206055 C6.9550671 34.61600897 7.07254211 37.23206495 7 40 C4.78800339 36.21083988 3.89211165 32.11278737 2.9375 27.875 C2.7612207 27.09398926 2.58494141 26.31297852 2.40332031 25.50830078 C0.61757255 17.05384846 0.20373069 8.617808 0 0 Z " fill="#FCFCFC" transform="translate(184,564)"/>
<path d="M0 0 C-0.66 0 -1.32 0 -2 0 C-2 0.66 -2 1.32 -2 2 C-5.93504649 3.34065238 -9.87341646 4.67126071 -13.8125 6 C-14.93205078 6.3815625 -16.05160156 6.763125 -17.20507812 7.15625 C-18.27822266 7.5171875 -19.35136719 7.878125 -20.45703125 8.25 C-21.44678955 8.58515625 -22.43654785 8.9203125 -23.45629883 9.265625 C-26 10 -26 10 -29 10 C-29 10.66 -29 11.32 -29 12 C-30.43344 12.53190541 -31.87195367 13.05015258 -33.3125 13.5625 C-34.51326172 13.99755859 -34.51326172 13.99755859 -35.73828125 14.44140625 C-38 15 -38 15 -41 14 C-34.4519514 10.96041201 -27.80258977 8.4080793 -21 6 C-19.08238883 5.31513887 -17.16570388 4.62767825 -15.25 3.9375 C-14.34765625 3.61265625 -13.4453125 3.2878125 -12.515625 2.953125 C-10.29419792 2.11146629 -8.15509722 1.18355334 -6 0.1875 C-3 -1 -3 -1 0 0 Z " fill="#FEFEFE" transform="translate(284,186)"/>
<path d="M0 0 C0.75 1.625 0.75 1.625 1 4 C-0.57652418 6.75891732 -2.07627122 9.17285412 -4.45703125 11.3046875 C-7.29386807 14.42161707 -8.67241351 18.47930972 -10.40234375 22.28515625 C-12.063511 25.10792211 -12.96321348 25.9440116 -16 27 C-15.4739075 23.21213403 -14.61896089 20.82847776 -12 18 C-11.34 18 -10.68 18 -10 18 C-9.79375 17.195625 -9.5875 16.39125 -9.375 15.5625 C-7.56837307 10.88169386 -4.86670034 7.08972195 -2 3 C-1.34 2.01 -0.68 1.02 0 0 Z " fill="#FBFBFB" transform="translate(766,730)"/>
<path d="M0 0 C0.6796875 1.7734375 0.6796875 1.7734375 1 4 C-0.1796875 5.8515625 -0.1796875 5.8515625 -1.875 7.625 C-4.22930429 10.10631269 -4.22930429 10.10631269 -6 13 C-6.66 13 -7.32 13 -8 13 C-8.268125 13.763125 -8.53625 14.52625 -8.8125 15.3125 C-9.98525491 17.96662954 -10.95681362 19.03854108 -13 21 C-13.495 21.86625 -13.99 22.7325 -14.5 23.625 C-16 26 -16 26 -19 27 C-17.69912239 22.70710388 -15.45806892 20.04513275 -12.5234375 16.78125 C-11.09232055 15.10794403 -9.91832405 13.42479097 -8.75 11.5625 C-7.88375 10.2940625 -7.88375 10.2940625 -7 9 C-6.34 9 -5.68 9 -5 9 C-4.731875 8.2575 -4.46375 7.515 -4.1875 6.75 C-3.05770579 4.13363446 -1.79106798 2.19812889 0 0 Z " fill="#FBFBFB" transform="translate(743,765)"/>
<path d="M0 0 C-1.76858691 0.67260351 -3.53996016 1.33788395 -5.3125 2 C-6.29863281 2.37125 -7.28476562 2.7425 -8.30078125 3.125 C-11 4 -11 4 -14 4 C-14 4.66 -14 5.32 -14 6 C-16.91080728 7.03810444 -19.82937658 8.05237641 -22.75 9.0625 C-23.575 9.35705078 -24.4 9.65160156 -25.25 9.95507812 C-26.04921875 10.22900391 -26.8484375 10.50292969 -27.671875 10.78515625 C-28.4050293 11.04176025 -29.13818359 11.29836426 -29.89355469 11.56274414 C-32.27364818 12.05680388 -33.71574672 11.76066537 -36 11 C-34.25307205 10.32532438 -32.50231475 9.66055844 -30.75 9 C-29.28820312 8.443125 -29.28820312 8.443125 -27.796875 7.875 C-25 7 -25 7 -21 7 C-21 6.34 -21 5.68 -21 5 C-18.06746654 3.96448955 -15.12833062 2.94918162 -12.1875 1.9375 C-11.35412109 1.64294922 -10.52074219 1.34839844 -9.66210938 1.04492188 C-8.85966797 0.77099609 -8.05722656 0.49707031 -7.23046875 0.21484375 C-6.49207764 -0.04176025 -5.75368652 -0.29836426 -4.99291992 -0.56274414 C-3 -1 -3 -1 0 0 Z " fill="#FDFDFD" transform="translate(320,173)"/>
<path d="M0 0 C0.66 0.33 1.32 0.66 2 1 C0.02 6.94 -1.96 12.88 -4 19 C-4.66 19 -5.32 19 -6 19 C-6.19335938 19.77085937 -6.38671875 20.54171875 -6.5859375 21.3359375 C-6.84632813 22.33882812 -7.10671875 23.34171875 -7.375 24.375 C-7.63023437 25.37273438 -7.88546875 26.37046875 -8.1484375 27.3984375 C-9 30 -9 30 -11 32 C-10.59764555 26.09880146 -8.61338453 21.34119632 -6.26953125 15.9375 C-4.71194746 12.33349073 -3.35709868 8.68355357 -2 5 C-1.33933281 3.33094605 -0.67561748 1.6630584 0 0 Z " fill="#FDFDFD" transform="translate(804,647)"/>
<path d="M0 0 C-3.32364969 1.35822223 -6.66007113 2.68234034 -10 4 C-10.6585498 4.26216309 -11.31709961 4.52432617 -11.99560547 4.79443359 C-14.13910354 5.64385564 -16.28764631 6.4793101 -18.4375 7.3125 C-19.13552734 7.59109863 -19.83355469 7.86969727 -20.55273438 8.15673828 C-25.65787698 10.11404101 -25.65787698 10.11404101 -29 9 C-28.34 9 -27.68 9 -27 9 C-27 8.34 -27 7.68 -27 7 C-22.87887083 5.6338479 -18.75254756 4.28412363 -14.625 2.9375 C-13.449375 2.54755859 -12.27375 2.15761719 -11.0625 1.75585938 C-9.38027344 1.20961914 -9.38027344 1.20961914 -7.6640625 0.65234375 C-6.62717285 0.31195068 -5.5902832 -0.02844238 -4.52197266 -0.37915039 C-2 -1 -2 -1 0 0 Z " fill="#FDFDFD" transform="translate(540,165)"/>
<path d="M0 0 C0.33 0.66 0.66 1.32 1 2 C-0.0390625 4.3203125 -0.0390625 4.3203125 -1.625 7.125 C-2.17671875 8.10339844 -2.7284375 9.08179688 -3.296875 10.08984375 C-5.45607238 13.77929799 -7.69180488 17.40193114 -10 21 C-10.33 20.34 -10.66 19.68 -11 19 C-9.92481882 16.55667274 -8.80191434 14.23245477 -7.5625 11.875 C-7.22412109 11.21628906 -6.88574219 10.55757812 -6.53710938 9.87890625 C-5.69850074 8.24893453 -4.85015189 6.62398091 -4 5 C-3.34 5 -2.68 5 -2 5 C-1.34 3.35 -0.68 1.7 0 0 Z " fill="#FCFCFC" transform="translate(834,751)"/>
<path d="M0 0 C1.23593891 3.70781672 0.5678132 4.67510253 -0.9375 8.1875 C-1.31777344 9.08855469 -1.69804688 9.98960937 -2.08984375 10.91796875 C-2.39019531 11.60503906 -2.69054687 12.29210937 -3 13 C-3.66 13 -4.32 13 -5 13 C-5.28875 14.134375 -5.5775 15.26875 -5.875 16.4375 C-6.24625 17.613125 -6.6175 18.78875 -7 20 C-7.66 20.33 -8.32 20.66 -9 21 C-6.76686274 13.55620912 -3.59727921 6.88023305 0 0 Z " fill="#FCFCFC" transform="translate(792,679)"/>
<path d="M0 0 C4.51219011 2.24048194 6.41103047 4.71089716 8.875 9.0625 C9.49117188 10.12597656 10.10734375 11.18945312 10.7421875 12.28515625 C11.15726562 13.18105469 11.57234375 14.07695313 12 15 C11.67 15.66 11.34 16.32 11 17 C9.15895764 14.54735411 7.32852207 12.08699041 5.5 9.625 C4.71302734 8.57699219 4.71302734 8.57699219 3.91015625 7.5078125 C3.41386719 6.8375 2.91757812 6.1671875 2.40625 5.4765625 C1.94541016 4.85861816 1.48457031 4.24067383 1.00976562 3.60400391 C0 2 0 2 0 0 Z " fill="#FBFBFB" transform="translate(281,808)"/>
<path d="M0 0 C0 0.66 0 1.32 0 2 C-1.93356782 2.69848264 -3.87202298 3.38344814 -5.8125 4.0625 C-6.89144531 4.44535156 -7.97039062 4.82820312 -9.08203125 5.22265625 C-12 6 -12 6 -15 5 C-10.08572909 1.82017764 -5.90403766 0 0 0 Z " fill="#F6F6F6" transform="translate(198,218)"/>
<path d="M0 0 C1.0169313 2.65498232 1.13022151 3.69155375 0.00390625 6.359375 C-0.47175781 7.14828125 -0.94742188 7.9371875 -1.4375 8.75 C-1.91058594 9.54921875 -2.38367188 10.3484375 -2.87109375 11.171875 C-3.24363281 11.77515625 -3.61617187 12.3784375 -4 13 C-4.66 13 -5.32 13 -6 13 C-6.33 13.99 -6.66 14.98 -7 16 C-8 13 -8 13 -6.85546875 10.625 C-6.30503906 9.75875 -5.75460937 8.8925 -5.1875 8 C-4.64480469 7.13375 -4.10210938 6.2675 -3.54296875 5.375 C-2.37390468 3.57552923 -1.19032069 1.78548103 0 0 Z " fill="#FBFBFB" transform="translate(775,714)"/>
<path d="M0 0 C0.33 0.99 0.66 1.98 1 3 C1.66 3 2.32 3 3 3 C3.69918305 5.58067563 4.38461049 8.16372847 5.0625 10.75 C5.26166016 11.47960937 5.46082031 12.20921875 5.66601562 12.9609375 C6.63744407 16.71031044 7.15449387 19.30274238 6 23 C5.73445312 22.04738281 5.46890625 21.09476563 5.1953125 20.11328125 C4.84210938 18.85902344 4.48890625 17.60476563 4.125 16.3125 C3.77695313 15.07113281 3.42890625 13.82976563 3.0703125 12.55078125 C2.0974547 9.10191407 2.0974547 9.10191407 0.8671875 6.29296875 C0 4 0 4 0 0 Z " fill="#FEFEFE" transform="translate(195,625)"/>
<path d="M0 0 C0.51046875 0.23589844 1.0209375 0.47179687 1.546875 0.71484375 C-0.763125 1.37484375 -3.073125 2.03484375 -5.453125 2.71484375 C-5.453125 3.37484375 -5.453125 4.03484375 -5.453125 4.71484375 C-6.71920107 5.24713701 -7.99122912 5.76528919 -9.265625 6.27734375 C-9.97332031 6.56738281 -10.68101562 6.85742188 -11.41015625 7.15625 C-13.453125 7.71484375 -13.453125 7.71484375 -16.453125 6.71484375 C-14.21005472 5.51234217 -11.9602459 4.32792755 -9.703125 3.15234375 C-8.75179687 2.63897461 -8.75179687 2.63897461 -7.78125 2.11523438 C-3.00217062 -0.34897843 -3.00217062 -0.34897843 0 0 Z " fill="#FBFBFB" transform="translate(583.453125,902.28515625)"/>
<path d="M0 0 C0.99 0.33 1.98 0.66 3 1 C1.35 4.3 -0.3 7.6 -2 11 C-2.66 11 -3.32 11 -4 11 C-4.33 11.66 -4.66 12.32 -5 13 C-4.39254603 8.14036821 -2.27241033 4.2594482 0 0 Z " fill="#F9F9F9" transform="translate(781,701)"/>
<path d="M0 0 C-0.66 0 -1.32 0 -2 0 C-2 0.66 -2 1.32 -2 2 C-4.43407005 2.86524753 -6.87143184 3.71742865 -9.3125 4.5625 C-10.00279297 4.80935547 -10.69308594 5.05621094 -11.40429688 5.31054688 C-16.66015625 7.11328125 -16.66015625 7.11328125 -20 6 C-18.66195313 5.49339844 -18.66195313 5.49339844 -17.296875 4.9765625 C-16.12640625 4.53054687 -14.9559375 4.08453125 -13.75 3.625 C-12.00976562 2.96371094 -12.00976562 2.96371094 -10.234375 2.2890625 C-7.11406267 1.12196718 -7.11406267 1.12196718 -4.765625 -0.2265625 C-3 -1 -3 -1 0 0 Z " fill="#FEFEFE" transform="translate(353,160)"/>
<path d="M0 0 C0.66 0.33 1.32 0.66 2 1 C-0.5550839 3.98093122 -3.38281401 5.52359755 -7 7 C-9.375 6.6875 -9.375 6.6875 -11 6 C-9.68 5.67 -8.36 5.34 -7 5 C-7 4.34 -7 3.68 -7 3 C-4.69631264 1.93347808 -2.35981813 0.93578995 0 0 Z " fill="#FAFAFA" transform="translate(596,895)"/>
<path d="M0 0 C0 0.66 0 1.32 0 2 C-1.43344 2.53190541 -2.87195367 3.05015258 -4.3125 3.5625 C-5.51326172 3.99755859 -5.51326172 3.99755859 -6.73828125 4.44140625 C-9 5 -9 5 -12 4 C-7.7650777 1.36748073 -5.09245753 0 0 0 Z " fill="#FCFCFC" transform="translate(333,167)"/>
<path d="M0 0 C3.34726719 1.11575573 3.62079748 1.51344622 5.25 4.4375 C5.8275 5.613125 6.405 6.78875 7 8 C6.67 8.66 6.34 9.32 6 10 C4.99421411 8.71283353 3.99553202 7.42011342 3 6.125 C2.443125 5.40570312 1.88625 4.68640625 1.3125 3.9453125 C0 2 0 2 0 0 Z " fill="#FCFCFC" transform="translate(274,798)"/>
<path d="M0 0 C2.30350423 2.81324326 3.61632717 5.28144037 4.6875 8.75 C5.06455078 9.94882812 5.06455078 9.94882812 5.44921875 11.171875 C5.63097656 11.77515625 5.81273437 12.3784375 6 13 C3.3582435 11.38380344 2.168841 10.50572658 1.171875 7.51953125 C1.03265625 6.62621094 0.8934375 5.73289062 0.75 4.8125 C0.60046875 3.91144531 0.4509375 3.01039063 0.296875 2.08203125 C0.19890625 1.39496094 0.1009375 0.70789063 0 0 Z " fill="#F6F6F6" transform="translate(247,751)"/>
<path d="M0 0 C0.33 0.66 0.66 1.32 1 2 C-2.75 7.875 -2.75 7.875 -5 9 C-3.90931332 5.22454612 -3.0916909 2.52956528 0 0 Z " fill="#FCFCFC" transform="translate(822,772)"/>
</svg>
